<svg id='document' width='40.96' height='40.96'>
	<g id='road'>
		<g id='path'>
			<g id='tile34820_22364 feature1246058491'>
				<path id="path0" stroke="black" stroke-width="0.5" fill="none" d="M2.96,25.86L3.62,24.82L4.4,23.68L6.74,20.16L9.27,16.93L11.370000000000001,14.6L12,14.040000000000001L13.97,12.280000000000001L14.94,11.71L15.77,11.1L16.2,10.790000000000001L18.96,8.75L21.64,6.5L22.84,5.89L24.11,5.24L26.6,3.92L28.42,2.85L30.73,1.41L34.230000000000004,-0.97L34.730000000000004,-1.28"/>
				<path id="path1" stroke="black" stroke-width="0.5" fill="none" d="M15.55,10.370000000000001L15.91,10.89"/>
				<path id="path2" stroke="black" stroke-width="0.5" fill="none" d="M22.84,5.89L22.7,5.69L22.53,5.41L22.34,5.16L22.150000000000002,4.82L21.85,4.93L21.47,4.96L20.98,4.82L20.75,4.64L20.35,4.29L19.73,3.46"/>
				<path id="path3" stroke="black" stroke-width="0.5" fill="none" d="M37.68,1.05L37.83,1.3800000000000001"/>
				<path id="path4" stroke="black" stroke-width="0.5" fill="none" d="M37.21,0.74L37.5,0.62L37.58,0.8200000000000001"/>
				<path id="path5" stroke="black" stroke-width="0.5" fill="none" d="M38.72,0.06L38.480000000000004,0.19L38.550000000000004,0.37"/>
				<path id="path6" stroke="black" stroke-width="0.5" fill="none" d="M37.96,2.9L39.24,2.27L40.85,1.52L40.36,0.26"/>
				<path id="path7" stroke="black" stroke-width="0.5" fill="none" d="M38.65,0.6L38.800000000000004,0.93L39.24,2.27"/>
				<path id="path8" stroke="black" stroke-width="0.5" fill="none" d="M37.09,3.2600000000000002L37.76,2.98"/>
				<path id="path9" stroke="black" stroke-width="0.5" fill="none" d="M15.82,37.43L17.330000000000002,35.9"/>
				<path id="path10" stroke="black" stroke-width="0.5" fill="none" d="M10.51,42.24L10.64,41.7L11.08,40.730000000000004L12.14,39.37L13.23,39.06"/>
				<path id="path11" stroke="black" stroke-width="0.5" fill="none" d="M3.7800000000000002,23.490000000000002L3.09,23.14"/>
			</g>
		</g>
		<g id='footway'>
			<g id='tile34820_22364 feature1616277921'>
				<path id="path0" stroke="black" stroke-width="0.5" fill="none" d="M42.04,14.27L39.83,14.21"/>
				<path id="path1" stroke="black" stroke-width="0.5" fill="none" d="M42.01,15.15V15.47L42.24,15.5"/>
			</g>
			<g id='tile34820_22364 feature2582960601'>
				<path id="path0" stroke="black" stroke-width="0.5" fill="none" d="M21.64,6.5L21.98,7.05"/>
				<path id="path1" stroke="black" stroke-width="0.5" fill="none" d="M36.19,11.620000000000001L36.13,11.97L34.800000000000004,11.8L32.69,11.69L30.45,11.71L28.07,12.49"/>
				<path id="path2" stroke="black" stroke-width="0.5" fill="none" d="M34.95,10.370000000000001L34.910000000000004,11.05L35.480000000000004,11.17"/>
				<path id="path3" stroke="black" stroke-width="0.5" fill="none" d="M34.910000000000004,11.05L34.800000000000004,11.8"/>
				<path id="path4" stroke="black" stroke-width="0.5" fill="none" d="M36.13,11.97L38.550000000000004,12.49L38.65,12.15L41.03,12.11L41.09,13.35L42.07,13.39L41.99,13.870000000000001L42.04,14.27L42.050000000000004,14.4L42.01,15.15"/>
				<path id="path5" stroke="black" stroke-width="0.5" fill="none" d="M27.2,18.76L27.39,19.080000000000002"/>
				<path id="path6" stroke="black" stroke-width="0.5" fill="none" d="M26.19,11.200000000000001L26.5,12.790000000000001"/>
				<path id="path7" stroke="black" stroke-width="0.5" fill="none" d="M23.72,9.61L24,10.52L23.92,11.13L24.04,11.540000000000001"/>
				<path id="path8" stroke="black" stroke-width="0.5" fill="none" d="M17.43,38.01L16.42,38.480000000000004L15.93,42.24"/>
				<path id="path9" stroke="black" stroke-width="0.5" fill="none" d="M3.3200000000000003,24.2L2.56,23.7L-1.09,22.38L-1.28,22.36"/>
			</g>
			<g id='tile34820_22364 feature6852691061'>
				<path id="path0" stroke="black" stroke-width="0.5" fill="none" d="M12,14.040000000000001L13.11,14.82"/>
				<path id="path1" stroke="black" stroke-width="0.5" fill="none" d="M38.83,21.25L40.09,21.22L42.24,21.46"/>
			</g>
			<g id='tile34820_22364 feature451852551'>
				<path id="path0" stroke="black" stroke-width="0.5" fill="none" d="M26.5,12.790000000000001L26.76,16L26.92,17.080000000000002L27.2,18.76"/>
			</g>
		</g>
		<g id='other'>
			<g id='tile34820_22364 feature5852100630'>
				<path id="path0" stroke="black" stroke-width="0.5" fill="none" d=""/>
			</g>
			<g id='tile34820_22364 feature26368566780'>
				<path id="path0" stroke="black" stroke-width="0.5" fill="none" d=""/>
			</g>
			<g id='tile34820_22364 feature26368566770'>
				<path id="path0" stroke="black" stroke-width="0.5" fill="none" d=""/>
			</g>
			<g id='tile34820_22364 feature5852100680'>
				<path id="path0" stroke="black" stroke-width="0.5" fill="none" d=""/>
			</g>
			<g id='tile34820_22364 feature5726889260'>
				<path id="path0" stroke="black" stroke-width="0.5" fill="none" d=""/>
			</g>
			<g id='tile34820_22364 feature26151967850'>
				<path id="path0" stroke="black" stroke-width="0.5" fill="none" d=""/>
			</g>
			<g id='tile34820_22364 feature5852100740'>
				<path id="path0" stroke="black" stroke-width="0.5" fill="none" d=""/>
			</g>
			<g id='tile34820_22364 feature26368566760'>
				<path id="path0" stroke="black" stroke-width="0.5" fill="none" d=""/>
			</g>
			<g id='tile34820_22364 feature26085731660'>
				<path id="path0" stroke="black" stroke-width="0.5" fill="none" d=""/>
			</g>
			<g id='tile34820_22364 feature4045773060'>
				<path id="path0" stroke="black" stroke-width="0.5" fill="none" d=""/>
			</g>
			<g id='tile34820_22364 feature5852100830'>
				<path id="path0" stroke="black" stroke-width="0.5" fill="none" d=""/>
			</g>
			<g id='tile34820_22364 feature21860592770'>
				<path id="path0" stroke="black" stroke-width="0.5" fill="none" d=""/>
			</g>
			<g id='tile34820_22364 feature26151967860'>
				<path id="path0" stroke="black" stroke-width="0.5" fill="none" d=""/>
			</g>
			<g id='tile34820_22364 feature5852100690'>
				<path id="path0" stroke="black" stroke-width="0.5" fill="none" d=""/>
			</g>
			<g id='tile34820_22364 feature5852100590'>
				<path id="path0" stroke="black" stroke-width="0.5" fill="none" d=""/>
			</g>
			<g id='tile34820_22364 feature5852100620'>
				<path id="path0" stroke="black" stroke-width="0.5" fill="none" d=""/>
			</g>
			<g id='tile34820_22364 feature1391017031'>
				<path id="path0" stroke="black" stroke-width="0.5" fill="none" d="M21.98,7.05L23.72,9.61"/>
				<path id="path1" stroke="black" stroke-width="0.5" fill="none" d="M37.58,0.8200000000000001L37.68,1.05"/>
				<path id="path2" stroke="black" stroke-width="0.5" fill="none" d="M38.550000000000004,0.37L38.65,0.6"/>
				<path id="path3" stroke="black" stroke-width="0.5" fill="none" d="M37.76,2.98L37.96,2.9"/>
				<path id="path4" stroke="black" stroke-width="0.5" fill="none" d="M13.23,39.06L15.82,37.43"/>
				<path id="path5" stroke="black" stroke-width="0.5" fill="none" d="M3.24,27.87L2.62,27.310000000000002L2.85,26.09"/>
			</g>
			<g id='tile34820_22364 feature458339081'>
				<path id="path0" stroke="black" stroke-width="0.5" fill="none" d="M2.96,25.86L2.41,25.53L1.84,25.2L1.42,25.8L0.84,26.05L-0.13,26.14L-1.28,25.84"/>
				<path id="path1" stroke="black" stroke-width="0.5" fill="none" d="M2.96,25.86L2.85,26.09L2.64,26.36L0.1,30.23L-1.28,32.39"/>
			</g>
			<g id='tile34820_22364 feature458770091'>
				<path id="path0" stroke="black" stroke-width="0.5" fill="none" d="M12.07,0.74L10.56,-1.28"/>
				<path id="path1" stroke="black" stroke-width="0.5" fill="none" d="M4.94,21.7L1.33,18.8L0.78,18.76L0.25,19.18L-0.76,21.85"/>
				<path id="path2" stroke="black" stroke-width="0.5" fill="none" d="M19.2,3.7800000000000002L19.73,3.46L20.63,2.92L21,3.0500000000000003"/>
				<path id="path3" stroke="black" stroke-width="0.5" fill="none" d="M26.34,3.5100000000000002L26.6,3.92L27.35,5.69"/>
				<path id="path4" stroke="black" stroke-width="0.5" fill="none" d="M28.59,2.16L27.72,0.99L29.62,-0.38L29.96,-0.61L29.43,-1.28"/>
				<path id="path5" stroke="black" stroke-width="0.5" fill="none" d="M24.01,20.240000000000002L26.12,18.88L27.39,19.080000000000002"/>
				<path id="path6" stroke="black" stroke-width="0.5" fill="none" d="M32.4,31.970000000000002L30.12,29.060000000000002L29.76,28.85L27.61,26.11"/>
				<path id="path7" stroke="black" stroke-width="0.5" fill="none" d="M29.92,22.84L30.44,24.8L29.6,25.36"/>
				<path id="path8" stroke="black" stroke-width="0.5" fill="none" d="M32.17,22.12L32.71,24.18"/>
				<path id="path9" stroke="black" stroke-width="0.5" fill="none" d="M36.58,21.19L37.230000000000004,20.57L40.93,20.3L41.09,20.84"/>
				<path id="path10" stroke="black" stroke-width="0.5" fill="none" d="M37.59,27.73L35.46,25.04L36.1,24.560000000000002"/>
				<path id="path11" stroke="black" stroke-width="0.5" fill="none" d="M38.62,30.64L37.27,32.71L34.68,36.24L34.22,37.300000000000004"/>
				<path id="path12" stroke="black" stroke-width="0.5" fill="none" d="M40.47,40.45L40.14,39.74L39.68,39.01L36.74,37.32L33.31,41.99L33.37,42.24"/>
				<path id="path13" stroke="black" stroke-width="0.5" fill="none" d="M28.17,35.68L30.740000000000002,38.19"/>
				<path id="path14" stroke="black" stroke-width="0.5" fill="none" d="M30.32,33.75L26.1,28.75"/>
				<path id="path15" stroke="black" stroke-width="0.5" fill="none" d="M22.13,32.43L21.490000000000002,33.660000000000004L22.36,34.11"/>
				<path id="path16" stroke="black" stroke-width="0.5" fill="none" d="M8.06,30.89L8.03,31.34"/>
				<path id="path17" stroke="black" stroke-width="0.5" fill="none" d="M0.41000000000000003,2.32L-1.28,3.1"/>
			</g>
			<g id='tile34820_22364 feature239029811'>
				<path id="path0" stroke="black" stroke-width="0.5" fill="none" d="M6.16,30.41L3.24,27.87"/>
			</g>
			<g id='tile34820_22364 feature451833281'>
				<path id="path0" stroke="black" stroke-width="0.5" fill="none" d="M38.18,-1.28L38.72,0.06"/>
				<path id="path1" stroke="black" stroke-width="0.5" fill="none" d="M40.64,0.14L39.97,-1.28"/>
				<path id="path2" stroke="black" stroke-width="0.5" fill="none" d="M37.94,-1.28L36.69,-0.71L37.21,0.74"/>
				<path id="path3" stroke="black" stroke-width="0.5" fill="none" d="M10.91,14.200000000000001L9.48,13.67L8.040000000000001,15.33L8.74,16.56"/>
				<path id="path4" stroke="black" stroke-width="0.5" fill="none" d="M36.51,1.97L37.83,1.3800000000000001L38.800000000000004,0.93L40.36,0.26L40.64,0.14L42.14,-0.33L42.24,-0.36"/>
				<path id="path5" stroke="black" stroke-width="0.5" fill="none" d="M21.82,28.650000000000002L23.5,29.92L23.89,29.98L26.51,32.14"/>
				<path id="path6" stroke="black" stroke-width="0.5" fill="none" d="M37.49,29.78L38.24,29.03L39.82,27.52L40.27,27.94L42.24,25.97"/>
				<path id="path7" stroke="black" stroke-width="0.5" fill="none" d="M39.82,27.52L38.93,26.650000000000002"/>
				<path id="path8" stroke="black" stroke-width="0.5" fill="none" d="M38.24,29.03L39.63,30.19"/>
				<path id="path9" stroke="black" stroke-width="0.5" fill="none" d="M-1.07,14.89L-1.28,15.120000000000001"/>
				<path id="path10" stroke="black" stroke-width="0.5" fill="none" d="M41.85,-1.28L42.14,-0.33"/>
			</g>
			<g id='tile34820_22364 feature355813241'>
				<path id="path0" stroke="black" stroke-width="0.5" fill="none" d="M30.76,20.72L31.25,22.36"/>
			</g>
			<g id='tile34820_22364 feature469527791'>
				<path id="path0" stroke="black" stroke-width="0.5" fill="none" d="M21.44,26.68L21.73,26.76L21.96,26.91L21.990000000000002,27.1L21.97,27.97L20.94,29.54L20.75,29.42L21.11,28.900000000000002L21.150000000000002,28.7L21.11,28.44L20.98,28.27L20.75,28.060000000000002L20.64,27.86L20.650000000000002,27.66L20.66,27.51L20.73,27.39L20.830000000000002,27.310000000000002L21.03,27.23L21.19,27.22L21.2,27.330000000000002L21.330000000000002,27.240000000000002L21.47,27.11L21.46,26.92L21.37,26.77L21.19,26.71Z"/>
			</g>
			<g id='tile34820_22364 feature1276838001'>
				<path id="path0" stroke="black" stroke-width="0.5" fill="none" d="M15.77,11.1L15.91,10.89L16.2,10.790000000000001"/>
				<path id="path1" stroke="black" stroke-width="0.5" fill="none" d="M3.22,22.91L3.09,23.14L2.97,23.34"/>
			</g>
			<g id='tile34820_22364 feature1430141521'>
				<path id="path0" stroke="black" stroke-width="0.5" fill="none" d="M25.34,24.46L25.17,23.650000000000002L25.05,22.75L25.12,21.900000000000002L25.43,21.12L26.12,20.32L26.77,19.71L27.39,19.080000000000002"/>
			</g>
			<g id='tile34820_22364 feature232665261'>
				<path id="path0" stroke="black" stroke-width="0.5" fill="none" d="M41.96,24.13L38.83,21.25"/>
			</g>
			<g id='tile34820_22364 feature622095561'>
				<path id="path0" stroke="black" stroke-width="0.5" fill="none" d="M36.32,1.46L36.51,1.97L37.09,3.2600000000000002L38.730000000000004,6.92L39.62,9.33"/>
			</g>
			<g id='tile34820_22364 feature2086394281'>
				<path id="path0" stroke="black" stroke-width="0.5" fill="none" d="M41.89,11.4L42.050000000000004,9.92L41.89,9.02"/>
			</g>
			<g id='tile34820_22364 feature239029801'>
				<path id="path0" stroke="black" stroke-width="0.5" fill="none" d="M36.32,1.46L35.37,2.29L34.31,3.38L32.8,5.33L31.830000000000002,6.890000000000001L31.11,8.48L30.67,9.68"/>
			</g>
			<g id='tile34820_22364 feature239029841'>
				<path id="path0" stroke="black" stroke-width="0.5" fill="none" d="M40.32,11.23L41.89,11.4"/>
			</g>
			<g id='tile34820_22364 feature340145051'>
				<path id="path0" stroke="black" stroke-width="0.5" fill="none" d="M41.89,11.4L42.24,11.44"/>
			</g>
			<g id='tile34820_22364 feature455251251'>
				<path id="path0" stroke="black" stroke-width="0.5" fill="none" d="M16.14,-0.42L15.51,-1.28"/>
				<path id="path1" stroke="black" stroke-width="0.5" fill="none" d="M21.06,6.16L19.2,3.7800000000000002L17.84,2.04"/>
			</g>
			<g id='tile34820_22364 feature348675801'>
				<path id="path0" stroke="black" stroke-width="0.5" fill="none" d="M0.27,38.43L0.6900000000000001,37.800000000000004L1.36,36.79L6.16,30.41L9.47,26.69L10.700000000000001,25.36L14.5,21.48L16.14,19.63L17.400000000000002,17.330000000000002L18.900000000000002,15.870000000000001L22.43,13L23.02,12.200000000000001L23.61,11.700000000000001L24.04,11.540000000000001L24.61,11.32L26.19,11.200000000000001L28.13,10.870000000000001L29.53,10.32L30.67,9.68"/>
			</g>
			<g id='tile34820_22364 feature1430135201'>
				<path id="path0" stroke="black" stroke-width="0.5" fill="none" d="M36.36,28.67L37.49,29.78L38.62,30.64L42.24,33.61"/>
			</g>
			<g id='tile34820_22364 feature239029831'>
				<path id="path0" stroke="black" stroke-width="0.5" fill="none" d="M-1.25,42.24L-1.1,41.39L-0.84,40.51L-0.33,39.43L0.27,38.43"/>
			</g>
			<g id='tile34820_22364 feature320665161'>
				<path id="path0" stroke="black" stroke-width="0.5" fill="none" d="M2.46,25.46L2.96,25.86L3.39,26.1L4.08,26.02L4.6000000000000005,25.79L5.08,25.310000000000002L10.05,18.93L13.11,14.82L13.4,14.42L14.59,12.32L14.94,11.71L15.17,10.66"/>
			</g>
			<g id='tile34820_22364 feature339214641'>
				<path id="path0" stroke="black" stroke-width="0.5" fill="none" d="M42.24,23.96L41.96,24.13L39.24,26.42L38.93,26.650000000000002L37.59,27.73L36.36,28.67"/>
			</g>
			<g id='tile34820_22364 feature1430135121'>
				<path id="path0" stroke="black" stroke-width="0.5" fill="none" d="M22.29,26.55L21.5,26.45L20.88,26.32L20.22,26.59L19.79,26.91L19.38,27.41L19,28.14L18.32,29.59L17.93,30.18L16.57,34.19L16.64,34.83L17.330000000000002,35.9L17.47,36.11L17.66,36.31"/>
			</g>
			<g id='tile34820_22364 feature237779681'>
				<path id="path0" stroke="black" stroke-width="0.5" fill="none" d="M17.84,2.04L16.14,-0.42"/>
			</g>
			<g id='tile34820_22364 feature8451256101'>
				<path id="path0" stroke="black" stroke-width="0.5" fill="none" d="M39.62,9.33L40.32,11.23"/>
			</g>
			<g id='tile34820_22364 feature283044291'>
				<path id="path0" stroke="black" stroke-width="0.5" fill="none" d="M-1.28,8.6L-0.07,8.25L2.75,7.38L5.25,6.23L8.870000000000001,3.61L12.07,0.74L14.34,-1.28"/>
			</g>
			<g id='tile34820_22364 feature232669701'>
				<path id="path0" stroke="black" stroke-width="0.5" fill="none" d="M25.34,24.46L27.22,23.82L29.92,22.84L31.25,22.36L32.17,22.12L34.18,21.59L36.21,21.18L36.58,21.19L38.83,21.25"/>
			</g>
			<g id='tile34820_22364 feature232665631'>
				<path id="path0" stroke="black" stroke-width="0.5" fill="none" d="M36.21,21.18L36.46,21.67L38.87,24.61L38.980000000000004,25.13L39.24,26.42"/>
			</g>
			<g id='tile34820_22364 feature340145041'>
				<path id="path0" stroke="black" stroke-width="0.5" fill="none" d="M30.67,9.68L34.95,10.370000000000001L40.32,11.23"/>
			</g>
			<g id='tile34820_22364 feature1430135211'>
				<path id="path0" stroke="black" stroke-width="0.5" fill="none" d="M27.62,36.17L25.25,34.56L22.13,32.43L21.64,32.09L20.27,31.25"/>
			</g>
			<g id='tile34820_22364 feature239029781'>
				<path id="path0" stroke="black" stroke-width="0.5" fill="none" d="M35.06,-1.28L36.32,1.46"/>
			</g>
			<g id='tile34820_22364 feature1430135191'>
				<path id="path0" stroke="black" stroke-width="0.5" fill="none" d="M41.86,42.24L42.24,41.92"/>
			</g>
			<g id='tile34820_22364 feature232665651'>
				<path id="path0" stroke="black" stroke-width="0.5" fill="none" d="M17.66,36.31L20.27,31.25L21.82,28.650000000000002L21.97,27.97L22.29,26.55L25.34,24.46"/>
			</g>
			<g id='tile34820_22364 feature336990301'>
				<path id="path0" stroke="black" stroke-width="0.5" fill="none" d="M6.16,30.41L6.99,30.27L8.06,30.89L8.47,30.6L9.22,29.67L9.92,28.42L10.01,27.68L9.47,26.69"/>
			</g>
			<g id='tile34820_22364 feature340124691'>
				<path id="path0" stroke="black" stroke-width="0.5" fill="none" d="M27.39,19.080000000000002L28.94,18.990000000000002L30.86,18.900000000000002L33.52,19.1L34.65,19.490000000000002L35.61,20.18L36.18,20.72L36.21,21.18"/>
			</g>
			<g id='tile34820_22364 feature1430135241'>
				<path id="path0" stroke="black" stroke-width="0.5" fill="none" d="M22.53,42.24L27.62,36.17L28.17,35.68L30.32,33.75L31.25,32.92L32.4,31.970000000000002L36.36,28.67"/>
			</g>
			<g id='tile34820_22364 feature1430135141'>
				<path id="path0" stroke="black" stroke-width="0.5" fill="none" d="M17.66,36.31L17.43,38.01L16.97,42.24"/>
			</g>
			<g id='tile34820_22364 feature376062941'>
				<path id="path0" stroke="black" stroke-width="0.5" fill="none" d="M24.330000000000002,4.46L23.55,4.58L23.09,4.78L22.51,5.04L22.34,5.16L21.79,5.55L21.34,5.89L21.06,6.16"/>
				<path id="path1" stroke="black" stroke-width="0.5" fill="none" d="M21.06,6.16L22.080000000000002,6L22.7,5.69L22.93,5.58L23.77,5L24.330000000000002,4.46"/>
			</g>
			<g id='tile34820_22364 feature2582960581'>
				<path id="path0" stroke="black" stroke-width="0.5" fill="none" d="M24.330000000000002,4.46L26.34,3.5100000000000002L28.59,2.16L29.87,1.36L33.74,-1.28"/>
				<path id="path1" stroke="black" stroke-width="0.5" fill="none" d="M1.25,27.19L2.41,25.53L2.46,25.46L2.65,25.19L3.3200000000000003,24.2L3.7800000000000002,23.490000000000002L4.94,21.7L6.18,19.830000000000002L8.74,16.56L10.91,14.200000000000001L13.030000000000001,12.31L15.17,10.66L15.55,10.370000000000001L21.06,6.16"/>
			</g>
			<g id='tile34820_22364 feature3852406121'>
				<path id="path0" stroke="black" stroke-width="0.5" fill="none" d="M-1.28,26.46L-0.29,26.75L1.25,27.19"/>
			</g>
			<g id='tile34820_22364 feature2583077691'>
				<path id="path0" stroke="black" stroke-width="0.5" fill="none" d="M-1.28,31.150000000000002L0.33,28.560000000000002L1.25,27.19"/>
			</g>
			<g id='tile34820_22364 feature1430135161'>
				<path id="path0" stroke="black" stroke-width="0.5" fill="none" d="M35.35,42.24L40.47,40.45L42.24,39.85"/>
			</g>
			<g id='tile34820_22364 feature425591611'>
				<path id="path0" stroke="black" stroke-width="0.5" fill="none" d="M-1.28,18.3L2.57,14.040000000000001L7.390000000000001,9.01L9.91,6.57L12.46,4.17L19.7,-1.12L19.92,-1.28"/>
				<path id="path1" stroke="black" stroke-width="0.5" fill="none" d="M19.45,-1.28L12.38,4.01L9.85,6.5L7.36,8.91L2.43,13.870000000000001L-1.28,17.97"/>
			</g>
		</g>
	</g>
	<g id='building'>
		<g id='building'>
			<g id='tile34820_22364 feature46983725'>
				<path id="path0" stroke="black" stroke-width="0.5" fill="none" d="M35.92,31.61L36.27,31.85L36.43,31.62L37.14,32.12L37.33,32.25L36.96,32.76L35.72,31.900000000000002Z"/>
			</g>
			<g id='tile34820_22364 feature46969486'>
				<path id="path0" stroke="black" stroke-width="0.5" fill="none" d="M26.11,21.2L26.32,21.72L25.87,21.900000000000002L25.66,21.38Z"/>
			</g>
			<g id='tile34820_22364 feature46995052'>
				<path id="path0" stroke="black" stroke-width="0.5" fill="none" d="M26.72,26.900000000000002L29.02,29.77L28.69,30.03L28.19,30.43L26.47,28.28L25.900000000000002,27.57Z"/>
			</g>
			<g id='tile34820_22364 feature45397329'>
				<path id="path0" stroke="black" stroke-width="0.5" fill="none" d="M28.900000000000002,7.65L29.53,8.98L27.98,9.71L27.36,8.38Z"/>
			</g>
			<g id='tile34820_22364 feature46983907'>
				<path id="path0" stroke="black" stroke-width="0.5" fill="none" d="M30.310000000000002,38.82L30.73,39.13L31.38,39.61L30.37,40.97L29.3,40.18Z"/>
			</g>
			<g id='tile34820_22364 feature208639424'>
				<path id="path0" stroke="black" stroke-width="0.5" fill="none" d="M13.61,9.94L13.94,10.39L13.120000000000001,10.98L12.790000000000001,10.52Z"/>
			</g>
			<g id='tile34820_22364 feature45899955'>
				<path id="path0" stroke="black" stroke-width="0.5" fill="none" d="M7.3100000000000005,11.78L7.62,12.030000000000001L8.78,13L7.23,14.870000000000001L5.76,13.64Z"/>
			</g>
			<g id='tile34820_22364 feature45823742'>
				<path id="path0" stroke="black" stroke-width="0.5" fill="none" d="M18.5,29.580000000000002L19.79,30.17L20.240000000000002,30.37L19.580000000000002,31.8L19.16,31.61L19,31.95L18.62,32.78L17.61,32.32L17.52,32.28L18.12,30.970000000000002L17.91,30.87Z"/>
			</g>
			<g id='tile34820_22364 feature45900858'>
				<path id="path0" stroke="black" stroke-width="0.5" fill="none" d="M4.07,37.69L6.63,39.550000000000004L7.07,39.45L7.42,40.12L6.36,40.99L5.94,40.42L5.78,40.480000000000004L4.0600000000000005,39.25L3.79,39.67L5.49,40.95L5.25,41.29H4.33L2.36,39.83L3.23,38.6L3.39,38.730000000000004Z"/>
			</g>
			<g id='tile34820_22364 feature46995079'>
				<path id="path0" stroke="black" stroke-width="0.5" fill="none" d="M35.86,23.6L36.2,24.04L34.95,25.01L34.61,24.57Z"/>
			</g>
			<g id='tile34820_22364 feature46969489'>
				<path id="path0" stroke="black" stroke-width="0.5" fill="none" d="M27.03,22.67L27.28,23.29L26.21,23.72L25.96,23.1L26.080000000000002,23.05L26.75,22.78Z"/>
			</g>
			<g id='tile34820_22364 feature161627423'>
				<path id="path0" stroke="black" stroke-width="0.5" fill="none" d="M35.93,13.59L36.26,13.620000000000001L38.01,13.93L37.87,14.530000000000001L35.86,14.040000000000001Z"/>
			</g>
			<g id='tile34820_22364 feature46952535'>
				<path id="path0" stroke="black" stroke-width="0.5" fill="none" d="M19.740000000000002,34.24L19.96,34.36L20.55,34.660000000000004L20.06,35.62L19.240000000000002,35.21Z"/>
			</g>
			<g id='tile34820_22364 feature46983724'>
				<path id="path0" stroke="black" stroke-width="0.5" fill="none" d="M36.78,30.29L37.89,31.11L37.14,32.12L36.43,31.62L36.75,31.17L36.35,30.87Z"/>
			</g>
			<g id='tile34820_22364 feature46983910'>
				<path id="path0" stroke="black" stroke-width="0.5" fill="none" d="M26.02,38.87L26.64,39.36L26.400000000000002,39.65L26.580000000000002,39.79L26.23,40.22L26.01,40.04L25.86,40.22L25.3,39.77Z"/>
			</g>
			<g id='tile34820_22364 feature45898126'>
				<path id="path0" stroke="black" stroke-width="0.5" fill="none" d="M14.38,7.25L14.86,7.83L14.42,8.19L13.72,8.77L13.5,8.96L13.01,8.370000000000001Z"/>
			</g>
			<g id='tile34820_22364 feature45447765'>
				<path id="path0" stroke="black" stroke-width="0.5" fill="none" d="M36.34,19.990000000000002L36.660000000000004,20.25L36.800000000000004,20.36L36.6,20.61L36.13,20.240000000000002Z"/>
			</g>
			<g id='tile34820_22364 feature45900862'>
				<path id="path0" stroke="black" stroke-width="0.5" fill="none" d="M8.03,32.57L9.01,33.04L8.66,33.97L8.4,34.43L7.47,33.84L7.71,33.35Z"/>
			</g>
			<g id='tile34820_22364 feature45639143'>
				<path id="path0" stroke="black" stroke-width="0.5" fill="none" d="M14.26,14.49L15.32,15.27L14.59,16.26L13.530000000000001,15.48Z"/>
			</g>
			<g id='tile34820_22364 feature46952540'>
				<path id="path0" stroke="black" stroke-width="0.5" fill="none" d="M22.27,32.99L22.98,33.49L22.67,33.93L21.96,33.44Z"/>
			</g>
			<g id='tile34820_22364 feature46952789'>
				<path id="path0" stroke="black" stroke-width="0.5" fill="none" d="M25.09,25.14L25.62,25.7L25.78,25.87L25.03,26.57L24.89,26.42L24.35,25.84Z"/>
			</g>
			<g id='tile34820_22364 feature45424286'>
				<path id="path0" stroke="black" stroke-width="0.5" fill="none" d="M10.98,27.51L12.09,28.17L10.25,31.78L8.73,31.01L9.38,29.73L9.75,29.91Z"/>
			</g>
			<g id='tile34820_22364 feature46950936'>
				<path id="path0" stroke="black" stroke-width="0.5" fill="none" d="M40.52,41.01L40.62,41.29H39.75Z"/>
			</g>
			<g id='tile34820_22364 feature45639155'>
				<path id="path0" stroke="black" stroke-width="0.5" fill="none" d="M26.69,0.88L27.09,2L26.39,2.25L26.2,1.72L25.810000000000002,1.86L25.6,1.27Z"/>
			</g>
			<g id='tile34820_22364 feature45440610'>
				<path id="path0" stroke="black" stroke-width="0.5" fill="none" d="M21.400000000000002,14.870000000000001L22,15.67L21.18,16.29L20.580000000000002,15.49Z"/>
			</g>
			<g id='tile34820_22364 feature45447749'>
				<path id="path0" stroke="black" stroke-width="0.5" fill="none" d="M18.29,27.05L18.93,27.26L18.580000000000002,28.34L17.93,28.13Z"/>
			</g>
			<g id='tile34820_22364 feature46952790'>
				<path id="path0" stroke="black" stroke-width="0.5" fill="none" d="M24.35,25.84L24.89,26.42L24.22,27.36L24.39,27.42L24.080000000000002,27.89L23.36,27.42Z"/>
			</g>
			<g id='tile34820_22364 feature45898567'>
				<path id="path0" stroke="black" stroke-width="0.5" fill="none" d="M15.8,16.39L17.02,17.25L16.35,18.2L15.6,17.68L15.8,17.400000000000002L15.33,17.07Z"/>
			</g>
			<g id='tile34820_22364 feature46360659'>
				<path id="path0" stroke="black" stroke-width="0.5" fill="none" d="M0.07,23.06L1,23.42L0.53,24.59L-0.05,24.35L-0.16,24.62L-0.33,24.55V23.14L-0.01,23.27Z"/>
			</g>
			<g id='tile34820_22364 feature46991479'>
				<path id="path0" stroke="black" stroke-width="0.5" fill="none" d="M40.21,24.04L40.660000000000004,24.580000000000002L39.58,25.490000000000002L39.15,24.97L39.37,24.78L39.550000000000004,24.64L39.410000000000004,24.48L39.61,24.310000000000002L39.800000000000004,24.150000000000002L39.92,24.28Z"/>
			</g>
			<g id='tile34820_22364 feature46991483'>
				<path id="path0" stroke="black" stroke-width="0.5" fill="none" d="M39.19,22.69L39.63,23.16L39.480000000000004,23.29L39.33,23.13L39.04,22.830000000000002Z"/>
			</g>
			<g id='tile34820_22364 feature916715981'>
				<path id="path0" stroke="black" stroke-width="0.5" fill="none" d="M-0.3,14.77L0.11,15.15L-0.33,15.63V14.8Z"/>
			</g>
			<g id='tile34820_22364 feature45397103'>
				<path id="path0" stroke="black" stroke-width="0.5" fill="none" d="M33.9,4.3L34.74,4.84L34.14,5.78L33.34,5.25Z"/>
			</g>
			<g id='tile34820_22364 feature45639140'>
				<path id="path0" stroke="black" stroke-width="0.5" fill="none" d="M23.16,12.94L24.05,14.280000000000001L23.6,14.57L23.21,13.98L22.78,14.26L22.29,13.51Z"/>
			</g>
			<g id='tile34820_22364 feature46983720'>
				<path id="path0" stroke="black" stroke-width="0.5" fill="none" d="M35.01,33.160000000000004L36.12,33.93L34.67,35.93L33.72,35.33Z"/>
			</g>
			<g id='tile34820_22364 feature46952783'>
				<path id="path0" stroke="black" stroke-width="0.5" fill="none" d="M25.01,27.17L25.23,27.38L25.37,27.51L24.740000000000002,28.16L24.39,27.82Z"/>
			</g>
			<g id='tile34820_22364 feature45639153'>
				<path id="path0" stroke="black" stroke-width="0.5" fill="none" d="M22.150000000000002,8.620000000000001L22.38,8.950000000000001L22.080000000000002,9.16L21.85,8.83Z"/>
			</g>
			<g id='tile34820_22364 feature45510788'>
				<path id="path0" stroke="black" stroke-width="0.5" fill="none" d="M2.45,8.24L2.82,9.51L1.52,9.88L1.16,8.620000000000001Z"/>
			</g>
			<g id='tile34820_22364 feature45900863'>
				<path id="path0" stroke="black" stroke-width="0.5" fill="none" d="M1.69,34.230000000000004L2.23,34.65L1.6300000000000001,35.480000000000004L1.08,35.06Z"/>
			</g>
			<g id='tile34820_22364 feature45574179'>
				<path id="path0" stroke="black" stroke-width="0.5" fill="none" d="M40.980000000000004,2.07L41.29,3.04V5.25L41.24,5.26L41.01,5.01L40.22,5.24L40.62,6.2L39.480000000000004,6.54L37.980000000000004,3.1L39.24,2.59L39.33,2.8000000000000003Z"/>
			</g>
			<g id='tile34820_22364 feature45899961'>
				<path id="path0" stroke="black" stroke-width="0.5" fill="none" d="M4.15,14.68L5.17,15.620000000000001L5.28,16.03L3.94,14.92Z"/>
			</g>
			<g id='tile34820_22364 feature45898570'>
				<path id="path0" stroke="black" stroke-width="0.5" fill="none" d="M12.870000000000001,15.66L13.3,15.98L12.780000000000001,16.66L12.35,16.34Z"/>
			</g>
			<g id='tile34820_22364 feature45397102'>
				<path id="path0" stroke="black" stroke-width="0.5" fill="none" d="M37.53,4.58L37.95,5.71L37.26,5.97L37.39,6.33L36.94,6.5L36.81,6.16L37.11,6.05L36.68,4.91Z"/>
			</g>
			<g id='tile34820_22364 feature45638647'>
				<path id="path0" stroke="black" stroke-width="0.5" fill="none" d="M34.2,7.24L34.35,7.71L34.27,7.74L33.24,8.07L33.09,7.6000000000000005Z"/>
			</g>
			<g id='tile34820_22364 feature45440605'>
				<path id="path0" stroke="black" stroke-width="0.5" fill="none" d="M27.28,9.450000000000001L27.57,10.23L26.79,10.52L26.5,9.75Z"/>
			</g>
			<g id='tile34820_22364 feature45397108'>
				<path id="path0" stroke="black" stroke-width="0.5" fill="none" d="M35.2,7.47L35.71,8.72L35.31,8.89L34.800000000000004,7.640000000000001Z"/>
			</g>
			<g id='tile34820_22364 feature45898557'>
				<path id="path0" stroke="black" stroke-width="0.5" fill="none" d="M5.25,23.02L5.8,23.400000000000002L6.01,23.53L5.13,24.650000000000002L4.45,24.17Z"/>
			</g>
			<g id='tile34820_22364 feature46969492'>
				<path id="path0" stroke="black" stroke-width="0.5" fill="none" d="M28.150000000000002,22.02L28.47,22.81L27.28,23.29L27.03,22.67L26.96,22.5L28.04,22.06Z"/>
			</g>
			<g id='tile34820_22364 feature46995069'>
				<path id="path0" stroke="black" stroke-width="0.5" fill="none" d="M32.04,23.1L32.19,23.73L30.68,24.1L30.53,23.47Z"/>
			</g>
			<g id='tile34820_22364 feature46969487'>
				<path id="path0" stroke="black" stroke-width="0.5" fill="none" d="M26.32,21.72L26.75,22.78L26.080000000000002,23.05L25.650000000000002,21.990000000000002L25.87,21.900000000000002Z"/>
			</g>
			<g id='tile34820_22364 feature46995055'>
				<path id="path0" stroke="black" stroke-width="0.5" fill="none" d="M35.84,26.490000000000002L36.050000000000004,26.740000000000002L36.49,27.26L35.480000000000004,28.11L34.83,27.34Z"/>
			</g>
			<g id='tile34820_22364 feature46952791'>
				<path id="path0" stroke="black" stroke-width="0.5" fill="none" d="M25.41,26.76L25.63,26.97L25.23,27.38L25.01,27.17Z"/>
			</g>
			<g id='tile34820_22364 feature45898558'>
				<path id="path0" stroke="black" stroke-width="0.5" fill="none" d="M5.92,22.06L6.45,22.43L6.3100000000000005,22.62L6.6000000000000005,22.82L6.3500000000000005,23.18L6.08,23L5.8,23.400000000000002L5.25,23.02Z"/>
			</g>
			<g id='tile34820_22364 feature161627427'>
				<path id="path0" stroke="black" stroke-width="0.5" fill="none" d="M31.8,11.39L32.59,11.43L32.51,11.950000000000001L31.8,11.97Z"/>
			</g>
			<g id='tile34820_22364 feature46983913'>
				<path id="path0" stroke="black" stroke-width="0.5" fill="none" d="M27.71,39.75L28.27,40.21L27.650000000000002,40.93L27.1,40.46Z"/>
			</g>
			<g id='tile34820_22364 feature45898549'>
				<path id="path0" stroke="black" stroke-width="0.5" fill="none" d="M9.72,17.38L10.23,17.79L10.44,17.96L10.24,18.2L10.07,18.05L9.67,18.54L9.14,18.11Z"/>
			</g>
			<g id='tile34820_22364 feature45397331'>
				<path id="path0" stroke="black" stroke-width="0.5" fill="none" d="M25.07,5.43L25.580000000000002,6.33L25.34,6.46L25.66,7.04L25.35,7.2L25.07,6.71L24.34,7.11L24.01,6.58L23.78,6.22Z"/>
			</g>
			<g id='tile34820_22364 feature46983719'>
				<path id="path0" stroke="black" stroke-width="0.5" fill="none" d="M37.2,33.14L37.61,33.43L38.24,33.88L36.76,36L35.71,35.26Z"/>
			</g>
			<g id='tile34820_22364 feature46983717'>
				<path id="path0" stroke="black" stroke-width="0.5" fill="none" d="M35.95,35.61L36.69,36.12L36.52,36.37L35.57,37.74L34.83,37.24Z"/>
			</g>
			<g id='tile34820_22364 feature45900857'>
				<path id="path0" stroke="black" stroke-width="0.5" fill="none" d="M2.3000000000000003,36.25L3.17,36.89L2.42,37.910000000000004L1.55,37.27Z"/>
			</g>
			<g id='tile34820_22364 feature45639157'>
				<path id="path0" stroke="black" stroke-width="0.5" fill="none" d="M24.82,-0.33L25.54,0.61L25.26,0.8300000000000001L24.94,0.41000000000000003L24.73,0.5700000000000001L24.96,0.87L24.03,1.59L23.81,1.3L23.47,1.56L23.86,2.06L22.93,2.7800000000000002L22.02,1.6L24.51,-0.33Z"/>
			</g>
			<g id='tile34820_22364 feature45899960'>
				<path id="path0" stroke="black" stroke-width="0.5" fill="none" d="M6.33,15.22L6.54,15.38L6.62,15.280000000000001L7.04,15.620000000000001L6.25,16.61L5.23,15.81L5.45,15.530000000000001L5.84,15.84Z"/>
			</g>
			<g id='tile34820_22364 feature46995066'>
				<path id="path0" stroke="black" stroke-width="0.5" fill="none" d="M28.09,32.79L28.900000000000002,33.77L28.18,34.37L27.5,33.55L27.72,33.37L27.580000000000002,33.21Z"/>
			</g>
			<g id='tile34820_22364 feature45876410'>
				<path id="path0" stroke="black" stroke-width="0.5" fill="none" d="M10.4,-0.33L10.89,0.23L9.61,1.36L9.07,0.75L10.28,-0.33Z"/>
			</g>
			<g id='tile34820_22364 feature46983914'>
				<path id="path0" stroke="black" stroke-width="0.5" fill="none" d="M28.44,38.08L28.7,38.32L27.91,39.21L27.64,38.980000000000004Z"/>
			</g>
			<g id='tile34820_22364 feature46983728'>
				<path id="path0" stroke="black" stroke-width="0.5" fill="none" d="M35.21,32.81L36.39,33.56L36.12,33.93L35.01,33.160000000000004Z"/>
			</g>
			<g id='tile34820_22364 feature45639146'>
				<path id="path0" stroke="black" stroke-width="0.5" fill="none" d="M17.29,6.44L17.92,7.33L17,8L16.36,7.11Z"/>
			</g>
			<g id='tile34820_22364 feature45397333'>
				<path id="path0" stroke="black" stroke-width="0.5" fill="none" d="M29.77,2.25L30.42,3.04L30.01,3.38L29.36,2.59Z"/>
			</g>
			<g id='tile34820_22364 feature45898565'>
				<path id="path0" stroke="black" stroke-width="0.5" fill="none" d="M12.18,14.34L12.94,14.94L12.1,15.99L11.34,15.38Z"/>
			</g>
			<g id='tile34820_22364 feature46952538'>
				<path id="path0" stroke="black" stroke-width="0.5" fill="none" d="M18.830000000000002,36.68L19.79,36.94L19.5,38.01L18.54,37.76Z"/>
			</g>
			<g id='tile34820_22364 feature916716007'>
				<path id="path0" stroke="black" stroke-width="0.5" fill="none" d="M2.21,-0.33L1.04,0.17L0.8300000000000001,-0.33Z"/>
			</g>
			<g id='tile34820_22364 feature45397098'>
				<path id="path0" stroke="black" stroke-width="0.5" fill="none" d="M41.1,7.04L41.2,7.59L40.62,7.7L40.69,8.11L39.82,8.26L39.69,7.53L40.15,7.44L40.11,7.21Z"/>
			</g>
			<g id='tile34820_22364 feature46983727'>
				<path id="path0" stroke="black" stroke-width="0.5" fill="none" d="M35.47,32.34L36.660000000000004,33.18L36.39,33.56L35.21,32.81Z"/>
			</g>
			<g id='tile34820_22364 feature45447753'>
				<path id="path0" stroke="black" stroke-width="0.5" fill="none" d="M18.44,26.55L19.07,26.75L18.93,27.26L18.29,27.05Z"/>
			</g>
			<g id='tile34820_22364 feature45424287'>
				<path id="path0" stroke="black" stroke-width="0.5" fill="none" d="M14.41,22.25L15.26,22.75L13.950000000000001,25.01L12.77,24.32Z"/>
			</g>
			<g id='tile34820_22364 feature45899963'>
				<path id="path0" stroke="black" stroke-width="0.5" fill="none" d="M9.32,9.540000000000001L10.19,10.56L9.69,10.98L9.46,10.71L8.82,9.96Z"/>
			</g>
			<g id='tile34820_22364 feature45639141'>
				<path id="path0" stroke="black" stroke-width="0.5" fill="none" d="M25.77,12.27L26.23,12.36L25.95,13.16L25.560000000000002,13.22L24.89,13.69L24.87,13.370000000000001L25.55,12.93Z"/>
			</g>
			<g id='tile34820_22364 feature45898560'>
				<path id="path0" stroke="black" stroke-width="0.5" fill="none" d="M8.120000000000001,21.7L8.81,22.27L8.11,23.11L7.42,22.55Z"/>
			</g>
			<g id='tile34820_22364 feature916716004'>
				<path id="path0" stroke="black" stroke-width="0.5" fill="none" d="M0.46,3.8200000000000003L0.93,4.98L-0.33,5.49V4.14Z"/>
			</g>
			<g id='tile34820_22364 feature45900843'>
				<path id="path0" stroke="black" stroke-width="0.5" fill="none" d="M-0.11,36.42L0.56,36.96L-0.22,37.92L-0.33,37.83V36.69Z"/>
			</g>
			<g id='tile34820_22364 feature46952788'>
				<path id="path0" stroke="black" stroke-width="0.5" fill="none" d="M25.400000000000002,24.85L25.93,25.41L25.62,25.7L25.09,25.14Z"/>
			</g>
			<g id='tile34820_22364 feature46986508'>
				<path id="path0" stroke="black" stroke-width="0.5" fill="none" d="M40.95,29.61L41.27,29.86L41.29,29.830000000000002V31.77L40.26,30.970000000000002L40.62,30.51L40.39,30.330000000000002Z"/>
			</g>
			<g id='tile34820_22364 feature45877010'>
				<path id="path0" stroke="black" stroke-width="0.5" fill="none" d="M2.7600000000000002,0.68L3.27,1.72L2.62,2.04L2.11,1.01Z"/>
			</g>
			<g id='tile34820_22364 feature45397113'>
				<path id="path0" stroke="black" stroke-width="0.5" fill="none" d="M37.81,9.56L39.480000000000004,9.66L39.410000000000004,10.75L37.75,10.66Z"/>
			</g>
			<g id='tile34820_22364 feature45898568'>
				<path id="path0" stroke="black" stroke-width="0.5" fill="none" d="M15.13,17.62L15.52,17.88L15.18,18.39L15.93,18.89L15.36,19.76L13.88,18.77L14.46,17.91L14.790000000000001,18.14Z"/>
			</g>
			<g id='tile34820_22364 feature46969481'>
				<path id="path0" stroke="black" stroke-width="0.5" fill="none" d="M28.92,23.79L29.32,24.5L28.75,24.82L28.88,25.060000000000002L28.580000000000002,25.22L28.45,24.990000000000002L27.98,25.25L27.580000000000002,24.54Z"/>
			</g>
			<g id='tile34820_22364 feature45447754'>
				<path id="path0" stroke="black" stroke-width="0.5" fill="none" d="M18.88,25.59L19.48,25.86L19.07,26.75L18.44,26.55Z"/>
			</g>
			<g id='tile34820_22364 feature45639148'>
				<path id="path0" stroke="black" stroke-width="0.5" fill="none" d="M15.4,4.44L16.2,5.54L15.36,6.16L14.55,5.0600000000000005Z"/>
			</g>
			<g id='tile34820_22364 feature46995075'>
				<path id="path0" stroke="black" stroke-width="0.5" fill="none" d="M29.09,25.3L29.36,25.810000000000002L28.85,26.09L28.53,25.68Z"/>
			</g>
			<g id='tile34820_22364 feature46952784'>
				<path id="path0" stroke="black" stroke-width="0.5" fill="none" d="M25.37,27.51L25.96,28.080000000000002L25.37,28.69L25.7,29.01L28.09,31.3L27.560000000000002,31.85L27.25,31.55L24.25,28.67L24.34,28.580000000000002L24.740000000000002,28.16Z"/>
			</g>
			<g id='tile34820_22364 feature45397328'>
				<path id="path0" stroke="black" stroke-width="0.5" fill="none" d="M31.03,1.43L31.79,2.3000000000000003L30.91,3.0700000000000003L30.150000000000002,2.2Z"/>
			</g>
			<g id='tile34820_22364 feature46995082'>
				<path id="path0" stroke="black" stroke-width="0.5" fill="none" d="M32.09,24.35L32.19,24.71L32.29,25.04L30.990000000000002,25.42L30.79,24.73Z"/>
			</g>
			<g id='tile34820_22364 feature46969475'>
				<path id="path0" stroke="black" stroke-width="0.5" fill="none" d="M34.160000000000004,19.78L34.43,20.88L32.44,21.38L32.160000000000004,20.29Z"/>
			</g>
			<g id='tile34820_22364 feature45899958'>
				<path id="path0" stroke="black" stroke-width="0.5" fill="none" d="M3.86,14.98L4.34,15.450000000000001L1.34,18.46L0.86,17.98Z"/>
			</g>
			<g id='tile34820_22364 feature46991486'>
				<path id="path0" stroke="black" stroke-width="0.5" fill="none" d="M40.4,19.44L40.44,20.07L39.99,20.1L39.94,19.47Z"/>
			</g>
			<g id='tile34820_22364 feature45397330'>
				<path id="path0" stroke="black" stroke-width="0.5" fill="none" d="M26.29,4.74L26.88,5.7700000000000005L26.72,5.86L26.67,5.98L25.900000000000002,6.42L25.88,6.16L25.580000000000002,6.33L25.07,5.43Z"/>
			</g>
			<g id='tile34820_22364 feature45639144'>
				<path id="path0" stroke="black" stroke-width="0.5" fill="none" d="M15.780000000000001,12.71L16.16,13.030000000000001L15.75,13.530000000000001L15.64,13.44L15.05,14.15L14.5,13.69L15,13.09L15.280000000000001,13.32Z"/>
			</g>
			<g id='tile34820_22364 feature45900846'>
				<path id="path0" stroke="black" stroke-width="0.5" fill="none" d="M0.92,34.93L1.08,35.06L1.6300000000000001,35.480000000000004L0.8200000000000001,36.54L-0.33,35.660000000000004V35.02L-0.3,34.980000000000004L0.26,35.410000000000004L0.45,35.160000000000004L0.63,35.300000000000004Z"/>
			</g>
			<g id='tile34820_22364 feature45639149'>
				<path id="path0" stroke="black" stroke-width="0.5" fill="none" d="M17.21,4.64L18.09,5.32L17.69,5.8500000000000005L17.91,6.03L17.490000000000002,6.58L16.67,5.96L17.080000000000002,5.43L16.78,5.2Z"/>
			</g>
			<g id='tile34820_22364 feature46995071'>
				<path id="path0" stroke="black" stroke-width="0.5" fill="none" d="M29.76,23.67L30.12,24.63L29.72,24.77L29.37,23.82Z"/>
			</g>
			<g id='tile34820_22364 feature45898539'>
				<path id="path0" stroke="black" stroke-width="0.5" fill="none" d="M8.66,25.91L9.22,26.36L7.68,28.25L7.12,27.79Z"/>
			</g>
			<g id='tile34820_22364 feature46995068'>
				<path id="path0" stroke="black" stroke-width="0.5" fill="none" d="M30.37,25.39L31.28,26.84L30.22,27.51L29.310000000000002,26.060000000000002Z"/>
			</g>
			<g id='tile34820_22364 feature45397107'>
				<path id="path0" stroke="black" stroke-width="0.5" fill="none" d="M34.27,7.74L34.72,9.14L33.7,9.47L33.24,8.07Z"/>
			</g>
			<g id='tile34820_22364 feature46952537'>
				<path id="path0" stroke="black" stroke-width="0.5" fill="none" d="M18.3,38.800000000000004L19.26,38.89L19.11,40.43L18.06,40.32L18.1,39.89L17.94,39.87L17.990000000000002,39.35L18.25,39.37Z"/>
			</g>
			<g id='tile34820_22364 feature46983908'>
				<path id="path0" stroke="black" stroke-width="0.5" fill="none" d="M28.650000000000002,36.62L29.42,37.35L29.17,37.61L28.400000000000002,36.89Z"/>
			</g>
			<g id='tile34820_22364 feature46991480'>
				<path id="path0" stroke="black" stroke-width="0.5" fill="none" d="M39.27,23.18L39.88,23.82L39.5,24.18L39.050000000000004,23.71L38.89,23.54Z"/>
			</g>
			<g id='tile34820_22364 feature45397115'>
				<path id="path0" stroke="black" stroke-width="0.5" fill="none" d="M41.29,8.14V8.42L40.86,8.5L40.81,8.22Z"/>
				<path id="path1" stroke="black" stroke-width="0.5" fill="none" d="M41.29,7.01V8.09L41.1,7.04Z"/>
			</g>
			<g id='tile34820_22364 feature46952543'>
				<path id="path0" stroke="black" stroke-width="0.5" fill="none" d="M23.92,37.27L24.62,37.9L23.16,39.550000000000004L22.45,38.92L23.02,38.28L22.650000000000002,37.95L23.03,37.52L23.400000000000002,37.85Z"/>
			</g>
			<g id='tile34820_22364 feature45397332'>
				<path id="path0" stroke="black" stroke-width="0.5" fill="none" d="M24.01,6.58L24.34,7.11L24.5,7.43L23.59,8.01L23.07,7.15Z"/>
			</g>
			<g id='tile34820_22364 feature45639137'>
				<path id="path0" stroke="black" stroke-width="0.5" fill="none" d="M17.52,10.51L18.44,11.57L17.79,12.120000000000001L16.88,11.06Z"/>
			</g>
			<g id='tile34820_22364 feature45898548'>
				<path id="path0" stroke="black" stroke-width="0.5" fill="none" d="M8.28,19.07L8.88,19.56L8.98,19.650000000000002L8.06,20.77L7.95,20.67L7.36,20.19Z"/>
			</g>
			<g id='tile34820_22364 feature46952536'>
				<path id="path0" stroke="black" stroke-width="0.5" fill="none" d="M19.98,32.45L20.740000000000002,32.84L19.96,34.36L19.740000000000002,34.24L19.2,33.96Z"/>
			</g>
			<g id='tile34820_22364 feature46952541'>
				<path id="path0" stroke="black" stroke-width="0.5" fill="none" d="M23.21,34.12L24.580000000000002,35.14L24.01,35.910000000000004L22.64,34.9Z"/>
			</g>
			<g id='tile34820_22364 feature45397109'>
				<path id="path0" stroke="black" stroke-width="0.5" fill="none" d="M35.51,6.58L35.78,7.24L35.2,7.47L34.94,6.8100000000000005Z"/>
			</g>
			<g id='tile34820_22364 feature46952786'>
				<path id="path0" stroke="black" stroke-width="0.5" fill="none" d="M24,28.25L24.34,28.580000000000002L24.25,28.67L23.84,29.1L23.41,29.55L23.06,29.22Z"/>
			</g>
			<g id='tile34820_22364 feature46969490'>
				<path id="path0" stroke="black" stroke-width="0.5" fill="none" d="M26.900000000000002,21.38L27.060000000000002,22.06L26.64,22.16L26.47,21.48Z"/>
			</g>
			<g id='tile34820_22364 feature45823743'>
				<path id="path0" stroke="black" stroke-width="0.5" fill="none" d="M15.55,38.18L16.36,38.25L16.29,39.08L16.01,39.06L15.48,39.01Z"/>
			</g>
			<g id='tile34820_22364 feature45823744'>
				<path id="path0" stroke="black" stroke-width="0.5" fill="none" d="M14.01,39.04L15.46,39.17L15.620000000000001,39.18L15.58,39.65L15.93,39.68L15.860000000000001,40.47L16.1,40.49L16.05,41.1L15.68,41.07L15.66,41.29H14.74L14.51,41.27L14.58,40.47L13.48,40.38L13.58,39.29L13.99,39.33Z"/>
			</g>
			<g id='tile34820_22364 feature46983918'>
				<path id="path0" stroke="black" stroke-width="0.5" fill="none" d="M33.57,32.03L33.83,32.34L34.01,32.18L34.28,32.5L34.1,32.660000000000004L34.31,32.92L33.42,33.67L32.68,32.78Z"/>
			</g>
			<g id='tile34820_22364 feature420462603'>
				<path id="path0" stroke="black" stroke-width="0.5" fill="none" d="M2.17,30.14L2.65,30.41L1.9000000000000001,31.76L1.42,31.490000000000002Z"/>
			</g>
			<g id='tile34820_22364 feature45424284'>
				<path id="path0" stroke="black" stroke-width="0.5" fill="none" d="M12.77,24.32L13.950000000000001,25.01L12.09,28.17L10.98,27.51L10.91,27.47Z"/>
			</g>
			<g id='tile34820_22364 feature45898550'>
				<path id="path0" stroke="black" stroke-width="0.5" fill="none" d="M10.25,16.73L11.01,17.330000000000002L10.620000000000001,17.82L10.370000000000001,17.62L10.23,17.79L9.72,17.38Z"/>
			</g>
			<g id='tile34820_22364 feature45639151'>
				<path id="path0" stroke="black" stroke-width="0.5" fill="none" d="M19.95,10.27L20.18,10.61L19.68,10.94L19.46,10.59Z"/>
			</g>
			<g id='tile34820_22364 feature46983912'>
				<path id="path0" stroke="black" stroke-width="0.5" fill="none" d="M28.78,38.730000000000004L29.240000000000002,39.13L28.330000000000002,40.17L27.87,39.76Z"/>
			</g>
			<g id='tile34820_22364 feature45639205'>
				<path id="path0" stroke="black" stroke-width="0.5" fill="none" d="M35.47,10.88L36.5,11.06L38.44,11.47L38.37,11.870000000000001L36.45,11.43L36.480000000000004,11.620000000000001H35.51L35.49,11.35L35.480000000000004,11.17Z"/>
			</g>
			<g id='tile34820_22364 feature45823746'>
				<path id="path0" stroke="black" stroke-width="0.5" fill="none" d="M17.5,32.85L18.6,33.3L18.36,33.88L17.27,33.43Z"/>
			</g>
			<g id='tile34820_22364 feature45639145'>
				<path id="path0" stroke="black" stroke-width="0.5" fill="none" d="M19.11,5.37L19.54,5.93L18.490000000000002,6.73L18.06,6.16Z"/>
			</g>
			<g id='tile34820_22364 feature46995050'>
				<path id="path0" stroke="black" stroke-width="0.5" fill="none" d="M31.720000000000002,27.36L32.15,27.94L30.64,29.080000000000002L30.21,28.5Z"/>
			</g>
			<g id='tile34820_22364 feature45445264'>
				<path id="path0" stroke="black" stroke-width="0.5" fill="none" d="M-0.33,35.71L0.15,36.1L-0.11,36.42L-0.33,36.69Z"/>
			</g>
			<g id='tile34820_22364 feature45440608'>
				<path id="path0" stroke="black" stroke-width="0.5" fill="none" d="M21.64,12.11L22.11,12.72L20.990000000000002,13.58L20.52,12.97Z"/>
			</g>
			<g id='tile34820_22364 feature45639203'>
				<path id="path0" stroke="black" stroke-width="0.5" fill="none" d="M39.660000000000004,11.620000000000001L39.67,12.1L39.26,12.11V11.620000000000001Z"/>
			</g>
			<g id='tile34820_22364 feature45440609'>
				<path id="path0" stroke="black" stroke-width="0.5" fill="none" d="M22.95,10.35L23.55,11.200000000000001L22.1,12.33L21.5,11.47Z"/>
			</g>
			<g id='tile34820_22364 feature452934326'>
				<path id="path0" stroke="black" stroke-width="0.5" fill="none" d="M15.48,39.01L16.01,39.06L15.99,39.22L15.620000000000001,39.18L15.46,39.17Z"/>
			</g>
			<g id='tile34820_22364 feature46995061'>
				<path id="path0" stroke="black" stroke-width="0.5" fill="none" d="M28.51,31.78L29.07,32.46L28.62,32.85L28.09,32.25Z"/>
			</g>
			<g id='tile34820_22364 feature46952542'>
				<path id="path0" stroke="black" stroke-width="0.5" fill="none" d="M26.02,36.14L26.38,36.44L25.57,37.45L25.2,37.15Z"/>
			</g>
			<g id='tile34820_22364 feature45445266'>
				<path id="path0" stroke="black" stroke-width="0.5" fill="none" d="M2.07,31.900000000000002L3.22,32.74L2.2,34.13L1.05,33.29Z"/>
			</g>
			<g id='tile34820_22364 feature45179096'>
				<path id="path0" stroke="black" stroke-width="0.5" fill="none" d="M41.29,12.85V13.870000000000001H40.46V12.85Z"/>
			</g>
			<g id='tile34820_22364 feature45397106'>
				<path id="path0" stroke="black" stroke-width="0.5" fill="none" d="M36.19,4.8100000000000005L36.67,6.09L35.94,6.44L35.74,5.9L35.660000000000004,5.94L35.39,5.32L35.76,5.18L35.68,5.03Z"/>
			</g>
			<g id='tile34820_22364 feature45638645'>
				<path id="path0" stroke="black" stroke-width="0.5" fill="none" d="M25.77,9.23L26.01,9.790000000000001L25.650000000000002,9.94L25.61,9.950000000000001L25.53,9.78L24.44,10.26L24.27,9.88Z"/>
			</g>
			<g id='tile34820_22364 feature46995084'>
				<path id="path0" stroke="black" stroke-width="0.5" fill="none" d="M33.47,24.44L33.65,25.04L33.25,25.16L33.07,24.55Z"/>
			</g>
			<g id='tile34820_22364 feature46995085'>
				<path id="path0" stroke="black" stroke-width="0.5" fill="none" d="M34.39,22.59L34.5,23.07L34.15,23.17L34.02,22.66Z"/>
			</g>
			<g id='tile34820_22364 feature45823745'>
				<path id="path0" stroke="black" stroke-width="0.5" fill="none" d="M15.83,30.42L16.92,30.82L16.73,31.61L16.34,31.48L15.610000000000001,33.87L15.94,33.92L15.73,34.87L16.38,35.82L15.73,36.67L14.81,36.300000000000004L14.08,35.38L13.73,34.65L13.93,34.03L13.780000000000001,34.01L13.99,33.52L14.27,33.56L14.32,33.35L14.040000000000001,33.230000000000004L14.32,32.3L14.65,32.43L14.790000000000001,32.13L14.44,32L14.57,31.57L15,31.67L15.13,31.080000000000002L15.59,31.16Z"/>
			</g>
			<g id='tile34820_22364 feature45397112'>
				<path id="path0" stroke="black" stroke-width="0.5" fill="none" d="M38.58,7.6000000000000005L38.96,8.97L38.35,9.14L38.09,8.17L37.68,8.290000000000001L37.59,7.98L38.03,7.86L38,7.76Z"/>
			</g>
			<g id='tile34820_22364 feature45397327'>
				<path id="path0" stroke="black" stroke-width="0.5" fill="none" d="M28.47,3.06L28.62,3.33L29.35,4.62L27.71,5.54L26.830000000000002,3.98Z"/>
			</g>
			<g id='tile34820_22364 feature46969483'>
				<path id="path0" stroke="black" stroke-width="0.5" fill="none" d="M30.1,20.51L30.5,21.62L30.35,21.67L30.5,22.1L29.580000000000002,22.42L29.03,20.89Z"/>
			</g>
			<g id='tile34820_22364 feature46983723'>
				<path id="path0" stroke="black" stroke-width="0.5" fill="none" d="M38.17,32.65L38.79,33.1L38.24,33.88L37.61,33.43Z"/>
			</g>
			<g id='tile34820_22364 feature46983722'>
				<path id="path0" stroke="black" stroke-width="0.5" fill="none" d="M39.69,32.56L40.72,33.31L39.97,34.34L38.94,33.58Z"/>
			</g>
			<g id='tile34820_22364 feature45447750'>
				<path id="path0" stroke="black" stroke-width="0.5" fill="none" d="M17.93,28.13L18.580000000000002,28.34L18.150000000000002,29.66L17.490000000000002,29.45L17.7,28.77L17.27,28.63L17.43,28.14L17.88,28.29Z"/>
			</g>
			<g id='tile34820_22364 feature45898556'>
				<path id="path0" stroke="black" stroke-width="0.5" fill="none" d="M4.45,24.17L5.13,24.650000000000002L4.37,25.650000000000002L3.73,25.2Z"/>
			</g>
			<g id='tile34820_22364 feature45510789'>
				<path id="path0" stroke="black" stroke-width="0.5" fill="none" d="M2.62,2.04L3.12,3.0700000000000003L2.3000000000000003,3.46L2.42,3.71L1.9000000000000001,3.95L1.3,2.7Z"/>
			</g>
			<g id='tile34820_22364 feature45397100'>
				<path id="path0" stroke="black" stroke-width="0.5" fill="none" d="M35.52,2.7600000000000002L35.92,3.24L35.78,3.35L36.21,3.86L35.4,4.51L35.11,4.08L34.97,4.1L34.5,3.61Z"/>
			</g>
			<g id='tile34820_22364 feature46983911'>
				<path id="path0" stroke="black" stroke-width="0.5" fill="none" d="M26.490000000000002,40.19L27.38,40.89L27.060000000000002,41.29H27.04L26.17,40.6Z"/>
			</g>
			<g id='tile34820_22364 feature45898122'>
				<path id="path0" stroke="black" stroke-width="0.5" fill="none" d="M11.44,9.51L12.18,10.53L11.13,11.290000000000001L10.39,10.27Z"/>
			</g>
			<g id='tile34820_22364 feature45898561'>
				<path id="path0" stroke="black" stroke-width="0.5" fill="none" d="M7.42,22.55L8.11,23.11L7.42,23.95L6.74,23.38Z"/>
			</g>
			<g id='tile34820_22364 feature46983726'>
				<path id="path0" stroke="black" stroke-width="0.5" fill="none" d="M35.72,31.900000000000002L36.96,32.76L36.660000000000004,33.18L35.47,32.34Z"/>
			</g>
			<g id='tile34820_22364 feature46969477'>
				<path id="path0" stroke="black" stroke-width="0.5" fill="none" d="M28.34,19.490000000000002L28.650000000000002,20.2L27.37,20.75L27.07,20.04Z"/>
			</g>
			<g id='tile34820_22364 feature46952544'>
				<path id="path0" stroke="black" stroke-width="0.5" fill="none" d="M21.400000000000002,32.57L21.69,32.7L21.46,33.230000000000004L21.17,33.11Z"/>
			</g>
			<g id='tile34820_22364 feature45898566'>
				<path id="path0" stroke="black" stroke-width="0.5" fill="none" d="M10.78,16.07L11.540000000000001,16.68L11.01,17.330000000000002L10.25,16.73Z"/>
			</g>
			<g id='tile34820_22364 feature45899959'>
				<path id="path0" stroke="black" stroke-width="0.5" fill="none" d="M3.72,18L4.39,18.46L3.71,19.43L3.04,18.96Z"/>
			</g>
			<g id='tile34820_22364 feature45898563'>
				<path id="path0" stroke="black" stroke-width="0.5" fill="none" d="M9.14,18.11L9.67,18.54L9.18,19.07L9.450000000000001,19.29L9.31,19.46L9.1,19.28L8.88,19.56L8.28,19.07Z"/>
			</g>
			<g id='tile34820_22364 feature46983916'>
				<path id="path0" stroke="black" stroke-width="0.5" fill="none" d="M34.46,31.220000000000002L34.980000000000004,31.86L35.36,32.32L35.050000000000004,32.85L34.01,31.560000000000002Z"/>
			</g>
			<g id='tile34820_22364 feature45447755'>
				<path id="path0" stroke="black" stroke-width="0.5" fill="none" d="M26.38,19.46L26.43,19.68L25.78,20.48L24.72,21.39L24.18,20.68L26.01,19.48Z"/>
			</g>
			<g id='tile34820_22364 feature161627422'>
				<path id="path0" stroke="black" stroke-width="0.5" fill="none" d="M32.15,12.84L35.13,13.370000000000001L35.08,13.9L32.04,13.39Z"/>
			</g>
			<g id='tile34820_22364 feature46991475'>
				<path id="path0" stroke="black" stroke-width="0.5" fill="none" d="M40.980000000000004,23.38L41.29,23.78V24.16L40.76,24.560000000000002L40.27,23.91Z"/>
			</g>
			<g id='tile34820_22364 feature46952787'>
				<path id="path0" stroke="black" stroke-width="0.5" fill="none" d="M22.11,29.740000000000002L22.25,29.87L22.35,29.75L23.55,30.79L22.71,31.76L22.63,31.85L21.29,30.69Z"/>
			</g>
			<g id='tile34820_22364 feature46952181'>
				<path id="path0" stroke="black" stroke-width="0.5" fill="none" d="M21.75,39.62L22.51,40.230000000000004L21.650000000000002,41.29H20.400000000000002Z"/>
			</g>
			<g id='tile34820_22364 feature46995056'>
				<path id="path0" stroke="black" stroke-width="0.5" fill="none" d="M34.13,27.51L35.03,28.62L33.99,29.47L33.09,28.36Z"/>
			</g>
			<g id='tile34820_22364 feature45510783'>
				<path id="path0" stroke="black" stroke-width="0.5" fill="none" d="M0.56,8.77L0.9400000000000001,10.1L-0.33,10.46V9.02Z"/>
			</g>
			<g id='tile34820_22364 feature161627432'>
				<path id="path0" stroke="black" stroke-width="0.5" fill="none" d="M30.2,11.93L31.8,11.97L32.51,11.950000000000001L34.35,12.01L36.550000000000004,12.33L36.26,13.620000000000001L35.93,13.59L35.86,14.040000000000001L35.08,13.9L35.13,13.370000000000001L32.15,12.84L32.04,13.39L31.32,13.34L31.37,12.700000000000001L30.16,12.61Z"/>
			</g>
			<g id='tile34820_22364 feature46995067'>
				<path id="path0" stroke="black" stroke-width="0.5" fill="none" d="M32.74,29.150000000000002L33.37,29.94L32.480000000000004,30.64L31.85,29.84Z"/>
			</g>
			<g id='tile34820_22364 feature45397099'>
				<path id="path0" stroke="black" stroke-width="0.5" fill="none" d="M41.29,9.040000000000001V9.97L40.27,10.15L40.11,9.24Z"/>
			</g>
			<g id='tile34820_22364 feature45898547'>
				<path id="path0" stroke="black" stroke-width="0.5" fill="none" d="M10.14,23.76L10.88,24.35L9.42,26.19L8.69,25.6Z"/>
			</g>
			<g id='tile34820_22364 feature45397334'>
				<path id="path0" stroke="black" stroke-width="0.5" fill="none" d="M34.76,-0.33L35.06,0.11L33.6,1.1L33.730000000000004,1.3L33.24,1.6300000000000001L33.11,1.43L32.31,1.97L31.740000000000002,1.1300000000000001L33.9,-0.33Z"/>
			</g>
			<g id='tile34820_22364 feature45639150'>
				<path id="path0" stroke="black" stroke-width="0.5" fill="none" d="M19.56,8.94L20.19,9.83L19.09,10.61L18.46,9.72Z"/>
			</g>
			<g id='tile34820_22364 feature685269107'>
				<path id="path0" stroke="black" stroke-width="0.5" fill="none" d="M12.3,20.5L13.36,21.38L11.36,23.82L10.290000000000001,22.94Z"/>
			</g>
			<g id='tile34820_22364 feature46995083'>
				<path id="path0" stroke="black" stroke-width="0.5" fill="none" d="M33.05,24.46L33.07,24.55L33.25,25.16L32.55,25.37L32.44,25L32.29,25.04L32.19,24.71Z"/>
			</g>
			<g id='tile34820_22364 feature45179463'>
				<path id="path0" stroke="black" stroke-width="0.5" fill="none" d="M38.36,21.64L39.2,22.54L39.27,22.62L39.19,22.69L39.04,22.830000000000002L38.47,23.36L37.56,22.37L37.93,22.03Z"/>
			</g>
			<g id='tile34820_22364 feature45639138'>
				<path id="path0" stroke="black" stroke-width="0.5" fill="none" d="M24.68,11.66L25.42,12.88L24.7,13.31L24.63,13.19L23.900000000000002,13.620000000000001L23.57,13.07L24.32,12.620000000000001L24.19,12.4L23.38,12.9L23.17,12.56Z"/>
			</g>
			<g id='tile34820_22364 feature46969478'>
				<path id="path0" stroke="black" stroke-width="0.5" fill="none" d="M29.8,19.75L30.01,20.23L28.85,20.68L28.650000000000002,20.2Z"/>
			</g>
			<g id='tile34820_22364 feature45899876'>
				<path id="path0" stroke="black" stroke-width="0.5" fill="none" d="M1.94,20.59L2.63,20.87L2.73,20.62L3.58,20.96L3.08,22.23L2.67,22.07L2.58,22.29L1.44,21.84L1.71,21.18Z"/>
			</g>
			<g id='tile34820_22364 feature46952534'>
				<path id="path0" stroke="black" stroke-width="0.5" fill="none" d="M21.17,34.5L21.97,34.95L21.82,35.22L22.05,35.35L21.87,35.67L22.09,35.79L21.73,36.44L21.93,36.550000000000004L21.67,37.02L20.56,36.4L20.64,36.25L20.3,36.06Z"/>
			</g>
			<g id='tile34820_22364 feature45898555'>
				<path id="path0" stroke="black" stroke-width="0.5" fill="none" d="M6.93,23.68L7.44,24.13L6.94,24.69L7.51,25.19L6.66,26.16L6.21,25.76L6,26L6.21,26.19L5.71,26.75L5.25,26.35L5.75,25.79L5.57,25.63L6.66,24.39L6.46,24.21Z"/>
			</g>
			<g id='tile34820_22364 feature46995076'>
				<path id="path0" stroke="black" stroke-width="0.5" fill="none" d="M34.02,22.66L34.15,23.17L34.2,23.400000000000002L33.83,23.490000000000002L33.94,23.94L33.11,24.14L32.82,22.95Z"/>
			</g>
			<g id='tile34820_22364 feature45639156'>
				<path id="path0" stroke="black" stroke-width="0.5" fill="none" d="M25.150000000000002,1.59L25.39,2.38L25.76,2.27L25.91,2.7600000000000002L24.39,3.22L24.01,1.93Z"/>
			</g>
			<g id='tile34820_22364 feature45397335'>
				<path id="path0" stroke="black" stroke-width="0.5" fill="none" d="M35.51,0.61L36.06,1.36L33.45,3.29L32.9,2.5500000000000003Z"/>
			</g>
			<g id='tile34820_22364 feature46983915'>
				<path id="path0" stroke="black" stroke-width="0.5" fill="none" d="M27.48,37.09L27.94,37.5L27.75,37.71L27.94,37.87L27.7,38.13L27.93,38.33L27.57,38.72L27.330000000000002,38.5L27.02,38.84L27.36,39.15L27.25,39.28L27.1,39.44L26.55,38.94L26.78,38.68L26.38,38.31Z"/>
			</g>
			<g id='tile34820_22364 feature45440606'>
				<path id="path0" stroke="black" stroke-width="0.5" fill="none" d="M21.490000000000002,7.66L22.150000000000002,8.620000000000001L21.85,8.83L21.12,9.33L20.46,8.370000000000001Z"/>
			</g>
			<g id='tile34820_22364 feature916716005'>
				<path id="path0" stroke="black" stroke-width="0.5" fill="none" d="M6.82,-0.33L7.0600000000000005,0.22L6.5,0.46L6.15,-0.33Z"/>
			</g>
			<g id='tile34820_22364 feature46953300'>
				<path id="path0" stroke="black" stroke-width="0.5" fill="none" d="M24.96,31.54L26.52,32.89L25.64,33.910000000000004L24.080000000000002,32.55L24.84,31.67Z"/>
			</g>
			<g id='tile34820_22364 feature46953303'>
				<path id="path0" stroke="black" stroke-width="0.5" fill="none" d="M24.25,28.67L27.25,31.55L26.84,31.98L23.84,29.1Z"/>
			</g>
			<g id='tile34820_22364 feature46995059'>
				<path id="path0" stroke="black" stroke-width="0.5" fill="none" d="M29.810000000000002,29.13L31.66,31.45L30.54,32.35L28.69,30.03L29.02,29.77L29.63,29.28Z"/>
			</g>
			<g id='tile34820_22364 feature46995074'>
				<path id="path0" stroke="black" stroke-width="0.5" fill="none" d="M26.67,25.46L26.89,25.87L27.07,26.2L26.66,26.43L26.32,25.8L26.26,25.68Z"/>
			</g>
			<g id='tile34820_22364 feature46950925'>
				<path id="path0" stroke="black" stroke-width="0.5" fill="none" d="M41.29,40.74V41.29H40.62L40.52,41.01Z"/>
			</g>
			<g id='tile34820_22364 feature45397104'>
				<path id="path0" stroke="black" stroke-width="0.5" fill="none" d="M33.34,5.25L34.14,5.78L33.52,6.76L32.74,6.26Z"/>
			</g>
			<g id='tile34820_22364 feature46969491'>
				<path id="path0" stroke="black" stroke-width="0.5" fill="none" d="M26.63,20.27L26.900000000000002,21.38L26.47,21.48L26.36,21.52L26.26,21.150000000000002L26.18,21.18L26.12,20.96L26.26,20.92L26.17,20.5Z"/>
			</g>
			<g id='tile34820_22364 feature553016507'>
				<path id="path0" stroke="black" stroke-width="0.5" fill="none" d="M28.93,-0.33L27.76,0.5700000000000001L27.07,-0.33Z"/>
			</g>
			<g id='tile34820_22364 feature45898569'>
				<path id="path0" stroke="black" stroke-width="0.5" fill="none" d="M11.59,17.94L12.66,18.81L10.65,21.25L9.59,20.38Z"/>
			</g>
			<g id='tile34820_22364 feature45397101'>
				<path id="path0" stroke="black" stroke-width="0.5" fill="none" d="M38.28,6.47L38.52,7.2L37.85,7.41L37.62,6.68Z"/>
			</g>
			<g id='tile34820_22364 feature45447759'>
				<path id="path0" stroke="black" stroke-width="0.5" fill="none" d="M22.78,19.86L24.490000000000002,21.63L23.96,21.86L24.19,23.47L23.57,24.91L22.84,24.86L22.56,25.080000000000002L22.67,25.2L21.98,25.830000000000002L21.830000000000002,25.67L21.490000000000002,25.94L21.07,25.650000000000002L19.77,25.66L19.55,25.17L19.09,24.93L19.14,24.82L18.59,24.53L19.43,22.92L19.98,23.2L19.85,23.46L20.31,23.7L21.21,23.62L21.81,23.22L21.98,23.48L22.25,22.73L22.07,21.97L22.45,21.96L21.42,21Z"/>
			</g>
			<g id='tile34820_22364 feature46952183'>
				<path id="path0" stroke="black" stroke-width="0.5" fill="none" d="M17.88,41.19L18.95,41.28V41.29H17.87Z"/>
			</g>
			<g id='tile34820_22364 feature45397111'>
				<path id="path0" stroke="black" stroke-width="0.5" fill="none" d="M37.85,8.61L37.94,9.22L36.910000000000004,9.38L36.84,8.9L36.82,8.77Z"/>
			</g>
			<g id='tile34820_22364 feature46995077'>
				<path id="path0" stroke="black" stroke-width="0.5" fill="none" d="M36.06,25.96L36.42,26.46L36.050000000000004,26.740000000000002L35.84,26.490000000000002L35.52,26.11Z"/>
			</g>
			<g id='tile34820_22364 feature46983902'>
				<path id="path0" stroke="black" stroke-width="0.5" fill="none" d="M31.35,33.87L32.06,34.730000000000004L30.88,35.69L30.18,34.82Z"/>
			</g>
			<g id='tile34820_22364 feature45397105'>
				<path id="path0" stroke="black" stroke-width="0.5" fill="none" d="M32.29,7.01L33.04,7.51L32.410000000000004,8.5L32.33,9.25L31.34,9.200000000000001L31.53,8.3Z"/>
			</g>
			<g id='tile34820_22364 feature46952785'>
				<path id="path0" stroke="black" stroke-width="0.5" fill="none" d="M23.04,27.97L23.53,28.400000000000002L23.32,28.63L23.1,28.45L22.85,28.73L22.59,28.5Z"/>
			</g>
			<g id='tile34820_22364 feature45900865'>
				<path id="path0" stroke="black" stroke-width="0.5" fill="none" d="M2.23,28.21L2.9,28.62L2.75,28.85L3.68,29.43L2.94,30.61L2.65,30.41L2.17,30.14L1.97,30L2.41,29.29L1.79,28.91Z"/>
			</g>
			<g id='tile34820_22364 feature46969485'>
				<path id="path0" stroke="black" stroke-width="0.5" fill="none" d="M28.38,20.61L28.68,21.36L28.3,21.52L28.060000000000002,21.62L27.76,20.86Z"/>
			</g>
			<g id='tile34820_22364 feature45397326'>
				<path id="path0" stroke="black" stroke-width="0.5" fill="none" d="M31.060000000000002,6.15L31.62,6.5200000000000005L30.48,8.24L30.92,8.540000000000001L30.560000000000002,9.09L30.04,8.75L30.38,8.24L29.82,7.86L30.150000000000002,7.37L29.78,7.12L30,6.78L30.44,7.08Z"/>
			</g>
			<g id='tile34820_22364 feature45639142'>
				<path id="path0" stroke="black" stroke-width="0.5" fill="none" d="M17.78,13.88L18.740000000000002,14.950000000000001L17.25,16.29L16.28,15.22Z"/>
			</g>
			<g id='tile34820_22364 feature45899875'>
				<path id="path0" stroke="black" stroke-width="0.5" fill="none" d="M0.8300000000000001,19.12L1.57,19.41L1.52,19.55L2.24,19.84L1.94,20.59L1.71,21.18L0.97,20.89L1.05,20.7L0.24,20.37L0.54,19.61L0.62,19.64Z"/>
			</g>
			<g id='tile34820_22364 feature45638646'>
				<path id="path0" stroke="black" stroke-width="0.5" fill="none" d="M26.01,9.790000000000001L26.35,10.61L24.87,11.23L24.53,10.41L25.650000000000002,9.94Z"/>
			</g>
			<g id='tile34820_22364 feature45898124'>
				<path id="path0" stroke="black" stroke-width="0.5" fill="none" d="M11.22,7.96L12.1,9.02L11.71,9.35L10.83,8.290000000000001Z"/>
			</g>
			<g id='tile34820_22364 feature46983917'>
				<path id="path0" stroke="black" stroke-width="0.5" fill="none" d="M35.410000000000004,30.5L35.75,30.93L35.43,31.2L35.78,31.62L35.660000000000004,31.82L35.38,31.52L34.980000000000004,31.86L34.46,31.220000000000002Z"/>
			</g>
			<g id='tile34820_22364 feature45900859'>
				<path id="path0" stroke="black" stroke-width="0.5" fill="none" d="M4.62,33.75L5.36,34.28L4.67,35.24L4.53,35.13L4.4,35.31L4.0600000000000005,35.07L4.2,34.88L3.94,34.69Z"/>
			</g>
			<g id='tile34820_22364 feature161627789'>
				<path id="path0" stroke="black" stroke-width="0.5" fill="none" d="M39.85,14.31L40.37,14.32L40.33,15.06L39.81,15.02Z"/>
			</g>
			<g id='tile34820_22364 feature161627426'>
				<path id="path0" stroke="black" stroke-width="0.5" fill="none" d="M30.8,10.15L31.900000000000002,10.16L34.52,10.64L34.45,11.21L34.4,11.620000000000001L32.59,11.43L31.8,11.39L30.7,11.34L30.18,11.53L27.85,12.32L27.88,12.75L26.7,12.92L26.63,12.030000000000001L26.86,11.540000000000001L27.37,11.36L27.310000000000002,11.19Z"/>
			</g>
			<g id='tile34820_22364 feature46969484'>
				<path id="path0" stroke="black" stroke-width="0.5" fill="none" d="M28.77,21.34L29.25,22.580000000000002L28.78,22.76L28.3,21.52L28.68,21.36Z"/>
			</g>
			<g id='tile34820_22364 feature45440607'>
				<path id="path0" stroke="black" stroke-width="0.5" fill="none" d="M19.93,13.370000000000001L20.39,13.98L19.44,14.71L18.97,14.09Z"/>
			</g>
			<g id='tile34820_22364 feature45639147'>
				<path id="path0" stroke="black" stroke-width="0.5" fill="none" d="M16.27,7.33L16.82,8.08L16.2,8.540000000000001L15.22,9.27L14.530000000000001,8.33L14.96,8.01L15.1,8.19Z"/>
			</g>
			<g id='tile34820_22364 feature45397110'>
				<path id="path0" stroke="black" stroke-width="0.5" fill="none" d="M36.84,8.9L36.910000000000004,9.38L37.01,9.91L35.71,10.14L35.58,9.43L35.81,9.39L35.76,9.09Z"/>
			</g>
			<g id='tile34820_22364 feature46969482'>
				<path id="path0" stroke="black" stroke-width="0.5" fill="none" d="M27.580000000000002,24.54L27.98,25.25L26.89,25.87L26.67,25.46L26.490000000000002,25.150000000000002L26.580000000000002,25.1Z"/>
			</g>
			<g id='tile34820_22364 feature45898564'>
				<path id="path0" stroke="black" stroke-width="0.5" fill="none" d="M11.34,15.38L12.1,15.99L11.540000000000001,16.68L10.78,16.07Z"/>
			</g>
			<g id='tile34820_22364 feature46995054'>
				<path id="path0" stroke="black" stroke-width="0.5" fill="none" d="M28.330000000000002,25.42L28.53,25.68L28.85,26.09L30.48,28.19L29.89,28.650000000000002L27.740000000000002,25.88Z"/>
			</g>
			<g id='tile34820_22364 feature46983718'>
				<path id="path0" stroke="black" stroke-width="0.5" fill="none" d="M38.24,33.88L39.04,34.45L37.96,36.03L37.13,35.47Z"/>
			</g>
			<g id='tile34820_22364 feature46995086'>
				<path id="path0" stroke="black" stroke-width="0.5" fill="none" d="M37.76,24.310000000000002L38.54,25.36L36.96,26.54L36.34,25.71L37.17,25.09L37.01,24.87L37.07,24.830000000000002Z"/>
			</g>
			<g id='tile34820_22364 feature45823739'>
				<path id="path0" stroke="black" stroke-width="0.5" fill="none" d="M13.21,41.26L13.540000000000001,41.29H13.21Z"/>
			</g>
			<g id='tile34820_22364 feature46953301'>
				<path id="path0" stroke="black" stroke-width="0.5" fill="none" d="M23.67,30.66L24.84,31.67L23.89,32.77L22.71,31.76L23.55,30.79Z"/>
			</g>
			<g id='tile34820_22364 feature916729294'>
				<path id="path0" stroke="black" stroke-width="0.5" fill="none" d="M35.57,22.05L35.59,22.17L35.88,22.12L36.03,23.01L34.79,23.21L34.64,22.32L34.82,22.29L34.800000000000004,22.18Z"/>
			</g>
			<g id='tile34820_22364 feature46952185'>
				<path id="path0" stroke="black" stroke-width="0.5" fill="none" d="M25.05,40L26.18,40.96L25.900000000000002,41.29H25.52L25.51,41.28L25.5,41.29H24.3L24.1,41.12Z"/>
			</g>
			<g id='tile34820_22364 feature45898559'>
				<path id="path0" stroke="black" stroke-width="0.5" fill="none" d="M6.5200000000000005,21.27L7.32,21.86L6.8100000000000005,22.56L6.01,21.97Z"/>
			</g>
			<g id='tile34820_22364 feature46983909'>
				<path id="path0" stroke="black" stroke-width="0.5" fill="none" d="M29.35,41.24L29.41,41.29H29.3Z"/>
			</g>
			<g id='tile34820_22364 feature45823747'>
				<path id="path0" stroke="black" stroke-width="0.5" fill="none" d="M17.14,33.82L18.25,34.24L17.94,35.03L16.84,34.61Z"/>
			</g>
			<g id='tile34820_22364 feature46995078'>
				<path id="path0" stroke="black" stroke-width="0.5" fill="none" d="M36.75,22.95L37.76,24.310000000000002L37.07,24.830000000000002L36.71,24.330000000000002L36.52,24.47L36.2,24.04L35.86,23.6Z"/>
			</g>
			<g id='tile34820_22364 feature45179097'>
				<path id="path0" stroke="black" stroke-width="0.5" fill="none" d="M40.37,14.32L41.29,14.370000000000001V15.11L40.33,15.06Z"/>
			</g>
			<g id='tile34820_22364 feature45900855'>
				<path id="path0" stroke="black" stroke-width="0.5" fill="none" d="M7.47,33.84L8.4,34.43L7.57,35.83L6.6000000000000005,35.27Z"/>
			</g>
			<g id='tile34820_22364 feature45900845'>
				<path id="path0" stroke="black" stroke-width="0.5" fill="none" d="M-0.33,33.18L0.32,33.6L0.07,33.99L-0.27,33.77L-0.33,33.86Z"/>
			</g>
		</g>
		<g id='other'>
			<g id='tile34820_22364 feature32352430'>
				<path id="path0" stroke="black" stroke-width="0.5" fill="none" d="M1.01,29.46L1.97,30L2.17,30.14L1.42,31.490000000000002L1.08,31.35L0.49,32.36L-0.33,31.88V31.740000000000002Z"/>
			</g>
			<g id='tile34820_22364 feature434813141'>
				<path id="path0" stroke="black" stroke-width="0.5" fill="none" d="M4.5600000000000005,18.32L5.54,18.91L5.15,19.56L4.17,18.97Z"/>
			</g>
		</g>
	</g>
	<g id='water'>
		<g id='other'>
			<g id='tile34820_22364 featureundefined'>
				<path id="path0" stroke="black" stroke-width="0.5" fill="none" d="M40.97,12.23L40.99,12.85H40.46V13.870000000000001H41.37L41.36,14.370000000000001L39.85,14.31L39.81,15.02L41.33,15.11V15.67L42.6,15.73L43.730000000000004,15.93L44.24,15.26V18.91L40.31,19.05L40.25,18.580000000000002L39.44,18.330000000000002L33.55,17.400000000000002L30.55,16.84L30.17,16.05L28.86,16.23L27.75,16.68L24.69,18.580000000000002L23.12,19.81L22.78,19.86L21.88,20.48L21.42,21L17.79,24.37L15.73,28.95L15.67,29.43L15.22,30.96L14.43,31.52L13.36,34.97L13.48,35.64L10.82,38.89L9.59,41.1L8.78,43.7L8.700000000000001,44.24H7.25L7.58,42.37L8.39,40.01L9.16,38.53L9.93,36.56L10.13,35.47L9.9,34.03L10.39,32.08L12.08,28.48L14.15,25.04L15.31,22.69L17.68,19.05L18.98,17.650000000000002L19.64,17.46L25.560000000000002,13.22L26.580000000000002,12.96L28.62,12.63L31.19,12.74L31.16,13.42L32.05,13.5L37.87,14.530000000000001L38.03,13.700000000000001L38.550000000000004,13.33L38.83,12.35Z"/>
			</g>
		</g>
	</g>
	<g id='-'>
	</g>
</svg>