<svg id='document' width='4096' height='4096'>
	<g id='road'>
		<g id='path'>
			<g id='feature458347011'>
				<path id="path0" stroke="black" stroke-width="5" fill="none" d="M1732,-256L1134,472L760,878L-234,1946L-256,1972"/>
			</g>
			<g id='feature1265635791'>
				<path id="path0" stroke="black" stroke-width="5" fill="none" d="M418,1214L354,1158"/>
				<path id="path1" stroke="black" stroke-width="5" fill="none" d="M228,1120L320,1190"/>
				<path id="path2" stroke="black" stroke-width="5" fill="none" d="M393,8176L456,8044L640,7420"/>
			</g>
		</g>
		<g id='footway'>
			<g id='feature350091011'>
				<path id="path0" stroke="black" stroke-width="5" fill="none" d="M232,5070L-256,4846"/>
			</g>
			<g id='feature6864300941'>
				<path id="path0" stroke="black" stroke-width="5" fill="none" d="M4086,7200L3852,7036L3600,6862L3650,6788"/>
				<path id="path1" stroke="black" stroke-width="5" fill="none" d="M3852,7036L4158,6590"/>
			</g>
			<g id='feature467105671'>
				<path id="path0" stroke="black" stroke-width="5" fill="none" d="M336,8024L66,7996"/>
			</g>
			<g id='feature350090991'>
				<path id="path0" stroke="black" stroke-width="5" fill="none" d="M526,4422L-256,3986"/>
			</g>
			<g id='feature4418012991'>
				<path id="path0" stroke="black" stroke-width="5" fill="none" d="M182,-256L-202,120"/>
				<path id="path1" stroke="black" stroke-width="5" fill="none" d="M5814,-256L5870,-156L6078,18V130"/>
				<path id="path2" stroke="black" stroke-width="5" fill="none" d="M5762,-256L5698,-248L5690,-256"/>
				<path id="path3" stroke="black" stroke-width="5" fill="none" d="M604,-256L522,-160L54,312L-134,492L-256,610"/>
				<path id="path4" stroke="black" stroke-width="5" fill="none" d="M1034,-256L778,60L120,714L-256,1090"/>
				<path id="path5" stroke="black" stroke-width="5" fill="none" d="M1160,286L956,164L778,60L522,-160L412,-256"/>
				<path id="path6" stroke="black" stroke-width="5" fill="none" d="M3526,3514L3284,3410L3014,3340L3006,2918"/>
				<path id="path7" stroke="black" stroke-width="5" fill="none" d="M3854,2264L3824,2358L2980,2382L3006,2796"/>
				<path id="path8" stroke="black" stroke-width="5" fill="none" d="M4516,4458L5418,4512L5600,4520L5602,4632L4516,4574Z"/>
				<path id="path9" stroke="black" stroke-width="5" fill="none" d="M4038,4174L6496,4328L6492,4476L4232,4338Z"/>
				<path id="path10" stroke="black" stroke-width="5" fill="none" d="M2766,6130L2888,6168"/>
				<path id="path11" stroke="black" stroke-width="5" fill="none" d="M3088,5828L3022,5806"/>
				<path id="path12" stroke="black" stroke-width="5" fill="none" d="M2776,6036L2816,5920"/>
				<path id="path13" stroke="black" stroke-width="5" fill="none" d="M1178,5496L1182,5376L1302,4930L1264,4922L1156,5314L1134,5308L1058,5288"/>
				<path id="path14" stroke="black" stroke-width="5" fill="none" d="M336,8024H346L504,7504L674,6908L770,6932"/>
				<path id="path15" stroke="black" stroke-width="5" fill="none" d="M72,7904L256,7358"/>
				<path id="path16" stroke="black" stroke-width="5" fill="none" d="M-148,7906L-160,7986L-186,8008L-208,8054L-230,8176"/>
				<path id="path17" stroke="black" stroke-width="5" fill="none" d="M72,7904L-148,7906H-256"/>
				<path id="path18" stroke="black" stroke-width="5" fill="none" d="M-256,2922L-230,2934L-256,2988"/>
				<path id="path19" stroke="black" stroke-width="5" fill="none" d="M120,714L-134,492L-256,384"/>
				<path id="path20" stroke="black" stroke-width="5" fill="none" d="M-256,176L-202,120"/>
				<path id="path21" stroke="black" stroke-width="5" fill="none" d="M66,7996L7,8176"/>
				<path id="path22" stroke="black" stroke-width="5" fill="none" d="M-188,8176L-160,7986"/>
			</g>
		</g>
<!--break--> 
		<g id='other'>
			<g id='feature5971167600'>
				<path id="path0" stroke="black" stroke-width="5" fill="none" d=""/>
			</g>
			<g id='feature467105641'>
				<path id="path0" stroke="black" stroke-width="5" fill="none" d="M66,7996L-160,7986"/>
			</g>
			<g id='feature244463991'>
				<path id="path0" stroke="black" stroke-width="5" fill="none" d="M970,3716L-256,3054"/>
			</g>
			<g id='feature499315861'>
				<path id="path0" stroke="black" stroke-width="5" fill="none" d="M6826,1864L7110,1894L7316,1928L7414,1918L7448,1308"/>
				<path id="path1" stroke="black" stroke-width="5" fill="none" d="M7156,5378L6886,5668L6724,5660L6466,5924"/>
				<path id="path2" stroke="black" stroke-width="5" fill="none" d="M7316,5516L6770,6130"/>
				<path id="path3" stroke="black" stroke-width="5" fill="none" d="M4180,7648L4240,7480L4394,7380L4554,7338L4762,7410L5682,8160L5704,8176"/>
				<path id="path4" stroke="black" stroke-width="5" fill="none" d="M6029,8176L6034,8172L6432,7620L6456,7520L6320,7372L5790,6966L5546,7308"/>
				<path id="path5" stroke="black" stroke-width="5" fill="none" d="M4566,6556L3884,6066"/>
				<path id="path6" stroke="black" stroke-width="5" fill="none" d="M3862,7500L4086,7200L4566,6556L4746,6314"/>
				<path id="path7" stroke="black" stroke-width="5" fill="none" d="M3164,5412L2884,5338L1838,5062"/>
				<path id="path8" stroke="black" stroke-width="5" fill="none" d="M2884,5338L2794,5646"/>
				<path id="path9" stroke="black" stroke-width="5" fill="none" d="M2462,5540L2794,5646"/>
				<path id="path10" stroke="black" stroke-width="5" fill="none" d="M1392,5476L1462,5364L1780,4184"/>
				<path id="path11" stroke="black" stroke-width="5" fill="none" d="M5672,8176L5682,8160"/>
				<path id="path12" stroke="black" stroke-width="5" fill="none" d="M8176,6748L7992,6948L8176,7128"/>
			</g>
			<g id='feature469347491'>
				<path id="path0" stroke="black" stroke-width="5" fill="none" d="M1880,-256L2210,38L2138,536"/>
				<path id="path1" stroke="black" stroke-width="5" fill="none" d="M3754,3532L3526,3514L3302,3492L2396,3294L2062,3160"/>
				<path id="path2" stroke="black" stroke-width="5" fill="none" d="M4018,2320L3854,2264L2404,1772"/>
				<path id="path3" stroke="black" stroke-width="5" fill="none" d="M3210,494L3928,830"/>
				<path id="path4" stroke="black" stroke-width="5" fill="none" d="M8176,4252L7420,3606L6738,3668"/>
				<path id="path5" stroke="black" stroke-width="5" fill="none" d="M6762,3288L7162,3072L7210,2994"/>
			</g>
			<g id='feature4443091821'>
				<path id="path0" stroke="black" stroke-width="5" fill="none" d="M-256,1932L-234,1946L-18,2060L294,2214L556,1964L662,1864L838,1186L884,1010L760,878L684,800"/>
				<path id="path1" stroke="black" stroke-width="5" fill="none" d="M-18,2060L838,1186"/>
				<path id="path2" stroke="black" stroke-width="5" fill="none" d="M294,2214L386,2264L1264,2700L1346,2694L1418,2496L1358,2410L618,2086L556,1964"/>
			</g>
			<g id='feature4370496820'>
				<path id="path0" stroke="black" stroke-width="5" fill="none" d=""/>
			</g>
			<g id='feature21612667260'>
				<path id="path0" stroke="black" stroke-width="5" fill="none" d=""/>
			</g>
			<g id='feature21612667240'>
				<path id="path0" stroke="black" stroke-width="5" fill="none" d=""/>
			</g>
			<g id='feature1265635731'>
				<path id="path0" stroke="black" stroke-width="5" fill="none" d="M456,1180L418,1214L388,1242"/>
				<path id="path1" stroke="black" stroke-width="5" fill="none" d="M180,1170L228,1120L272,1078"/>
			</g>
			<g id='feature4394734781'>
				<path id="path0" stroke="black" stroke-width="5" fill="none" d="M6894,2680L7046,2688L7584,2720L7726,2722L7712,3024L7628,3018L7298,3000L7210,2994L6876,2974Z"/>
			</g>
			<g id='feature4796967371'>
				<path id="path0" stroke="black" stroke-width="5" fill="none" d="M1044,4572L1098,4588L644,6192L312,7372L256,7358Z"/>
				<path id="path1" stroke="black" stroke-width="5" fill="none" d="M1418,4034L1492,4054L1134,5308L674,6908L600,6886L956,5642L1058,5288Z"/>
				<path id="path2" stroke="black" stroke-width="5" fill="none" d="M2758,6030L2776,6036L2796,6044L2766,6130L2730,6238L2692,6226Z"/>
				<path id="path3" stroke="black" stroke-width="5" fill="none" d="M3120,5728L3160,5742L3094,5936L3056,5924L3088,5828Z"/>
			</g>
			<g id='feature341753641'>
				<path id="path0" stroke="black" stroke-width="5" fill="none" d="M3568,-256L3210,494L3004,994L4336,1558"/>
			</g>
			<g id='feature232673831'>
				<path id="path0" stroke="black" stroke-width="5" fill="none" d="M8114,6248L7316,5516L7238,5448L7156,5378L6954,5202L6796,4946L6700,4622L6710,4078L6738,3668L6762,3288L6824,2348"/>
			</g>
			<g id='feature346470491'>
				<path id="path0" stroke="black" stroke-width="5" fill="none" d="M6824,2348L6826,1864L6828,1816L6910,686"/>
			</g>
			<g id='feature376062961'>
				<path id="path0" stroke="black" stroke-width="5" fill="none" d="M-256,6178L114,5394L232,5070L526,4422L688,4148L846,3990L970,3716"/>
			</g>
			<g id='feature340021591'>
				<path id="path0" stroke="black" stroke-width="5" fill="none" d="M6824,2348L8176,2226"/>
			</g>
			<g id='feature2056157871'>
				<path id="path0" stroke="black" stroke-width="5" fill="none" d="M3546,4288L3736,3632L3754,3532L3856,2980L4018,2320L4336,1558L4588,1102L4946,424L5192,26L5370,-256"/>
				<path id="path1" stroke="black" stroke-width="5" fill="none" d="M2960,5964L3022,5806L3164,5412L3238,5204L3328,4946"/>
			</g>
			<g id='feature483091251'>
				<path id="path0" stroke="black" stroke-width="5" fill="none" d="M6908,202L8176,143"/>
			</g>
			<g id='feature467099191'>
				<path id="path0" stroke="black" stroke-width="5" fill="none" d="M2960,5964L2888,6168L2746,6570V6616L2760,6696L2802,6784L2874,6876L2936,6938L3838,7488"/>
			</g>
			<g id='feature340027751'>
				<path id="path0" stroke="black" stroke-width="5" fill="none" d="M3646,-256L4946,424"/>
			</g>
			<g id='feature1430130731'>
				<path id="path0" stroke="black" stroke-width="5" fill="none" d="M3328,4946L3546,4288"/>
			</g>
			<g id='feature340021041'>
				<path id="path0" stroke="black" stroke-width="5" fill="none" d="M7238,5448L8176,4398"/>
			</g>
			<g id='feature607804401'>
				<path id="path0" stroke="black" stroke-width="5" fill="none" d="M6910,686L6912,446L6908,202"/>
			</g>
			<g id='feature346470501'>
				<path id="path0" stroke="black" stroke-width="5" fill="none" d="M6870,96L6872,-36L6798,-256"/>
			</g>
			<g id='feature2045589641'>
				<path id="path0" stroke="black" stroke-width="5" fill="none" d="M3838,7488L3862,7500L4180,7648L4774,7910L5214,8176"/>
				<path id="path1" stroke="black" stroke-width="5" fill="none" d="M3838,7488L3678,7816L3547,8176"/>
			</g>
			<g id='feature2056157971'>
				<path id="path0" stroke="black" stroke-width="5" fill="none" d="M640,7420L770,6932L1178,5496L1286,5460L1392,5476L2816,5920L2960,5964"/>
			</g>
			<g id='feature244597301'>
				<path id="path0" stroke="black" stroke-width="5" fill="none" d="M5192,26L6078,130L6198,142"/>
				<path id="path1" stroke="black" stroke-width="5" fill="none" d="M6870,96L6908,202"/>
			</g>
			<g id='feature609279851'>
				<path id="path0" stroke="black" stroke-width="5" fill="none" d="M-256,5258L114,5394"/>
			</g>
			<g id='feature1430130821'>
				<path id="path0" stroke="black" stroke-width="5" fill="none" d="M8114,6248L6382,8176"/>
			</g>
			<g id='feature612334641'>
				<path id="path0" stroke="black" stroke-width="5" fill="none" d="M8176,6181L8114,6248"/>
			</g>
			<g id='feature2061257351'>
				<path id="path0" stroke="black" stroke-width="5" fill="none" d="M1596,-256L1160,286L684,800L354,1158L320,1190L200,1314L-54,1578L-256,1808"/>
			</g>
			<g id='feature2488685511'>
				<path id="path0" stroke="black" stroke-width="5" fill="none" d="M-256,2598L386,2894L1314,3366L2226,3870L3118,4410L3988,4982L4838,5586L5654,6228L6500,6926"/>
				<path id="path1" stroke="black" stroke-width="5" fill="none" d="M7890,8176L7768,8064"/>
			</g>
			<g id='feature1750176151'>
				<path id="path0" stroke="black" stroke-width="5" fill="none" d="M6500,6926L6786,7182L6856,7246"/>
				<path id="path1" stroke="black" stroke-width="5" fill="none" d="M7768,8064L7290,7634"/>
			</g>
			<g id='feature1430130701'>
				<path id="path0" stroke="black" stroke-width="5" fill="none" d="M6856,7246L7290,7634"/>
			</g>
			<g id='feature240114701'>
				<path id="path0" stroke="black" stroke-width="5" fill="none" d="M1566,3020L1352,3826"/>
				<path id="path1" stroke="black" stroke-width="5" fill="none" d="M1432,3860L1652,3050"/>
			</g>
			<g id='feature240114711'>
				<path id="path0" stroke="black" stroke-width="5" fill="none" d="M2706,-256L2454,268L2116,1142L1566,3020"/>
				<path id="path1" stroke="black" stroke-width="5" fill="none" d="M1652,3050L2194,1158L2530,294L2784,-256"/>
				<path id="path2" stroke="black" stroke-width="5" fill="none" d="M1352,3826L1130,4600L674,6200L344,7380L158,8010L107,8176"/>
				<path id="path3" stroke="black" stroke-width="5" fill="none" d="M186,8176L236,8014L574,6874L928,5634L1406,3956L1432,3860"/>
			</g>
		</g>
	</g>
</svg>